<svg version="1.1" id="Layer_1" xmlns="http://www.w3.org/2000/svg" xmlns:xlink="http://www.w3.org/1999/xlink" x="0px" y="0px"
	 width="100%" viewBox="0 0 400 400" enable-background="new 0 0 400 400" xml:space="preserve">
<path fill="#FFFFFF" opacity="1.000000" stroke="none" 
	d="
M223.000000,401.000000 
	C148.689743,401.000000 74.879471,401.000000 1.034604,401.000000 
	C1.034604,267.731415 1.034604,134.462799 1.034604,1.097093 
	C134.226883,1.097093 267.453857,1.097093 400.840424,1.097093 
	C400.840424,134.333176 400.840424,267.666565 400.840424,401.000000 
	C341.796204,401.000000 282.648102,401.000000 223.000000,401.000000 
M387.884064,154.934311 
	C388.882294,149.379959 387.903595,144.008469 387.284973,138.447250 
	C386.040741,127.261971 382.575867,116.920815 377.989075,106.916481 
	C371.352417,92.441078 361.967163,79.980568 348.976807,70.468246 
	C338.201477,62.577938 326.255219,56.817558 313.523712,53.274822 
	C306.354370,51.279839 298.502655,50.985588 290.986908,51.159351 
	C279.087280,51.434464 267.226776,51.749210 255.405655,54.682991 
	C245.612610,57.113441 236.257584,60.047123 228.343002,66.086403 
	C221.752991,71.114975 215.628296,76.936905 210.115723,83.135147 
	C205.793594,87.994888 202.722916,93.967628 198.963379,99.646614 
	C198.297638,98.116791 197.894531,96.482094 196.984146,95.210640 
	C189.770737,85.136528 182.830078,75.104843 172.562469,67.362488 
	C162.199188,59.547993 150.411438,55.673748 138.514587,53.450939 
	C126.080376,51.127731 112.988129,52.250996 100.180763,52.024002 
	C89.676971,51.837833 79.852089,54.408569 70.307884,58.915062 
	C58.683167,64.403915 47.520275,70.517647 38.867844,80.153419 
	C31.724224,88.108917 25.092503,96.580826 21.035311,106.648506 
	C19.599304,110.211891 19.395061,114.372932 17.541508,117.645470 
	C13.814857,124.225037 13.336214,131.465668 13.217169,138.477585 
	C13.056073,147.966263 13.456524,157.488190 14.383574,167.053482 
	C15.367918,177.209900 19.456453,185.922302 22.470533,195.024353 
	C25.077940,202.898346 30.157816,210.188858 35.169857,216.980850 
	C44.727757,229.933044 54.326328,242.979233 65.186287,254.813354 
	C77.182541,267.885712 90.290886,280.001404 103.521698,291.856476 
	C113.850731,301.111481 124.843231,309.692108 136.041138,317.889069 
	C144.096832,323.785919 152.925201,328.642273 161.502472,333.807434 
	C170.980484,339.515045 180.300339,345.594330 190.231857,350.386932 
	C194.291046,352.345764 200.419739,352.959534 204.463730,351.336578 
	C211.001053,348.713074 216.580231,343.715118 222.588959,339.757751 
	C229.097321,335.471313 235.587982,331.155243 242.171143,326.985962 
	C249.361160,322.432343 256.860260,318.336060 263.830353,313.475006 
	C270.155762,309.063568 276.050812,304.010345 281.956268,299.027466 
	C290.207611,292.065216 298.454681,285.082123 306.401154,277.778839 
	C313.836945,270.944885 321.243713,264.012299 328.010315,256.532471 
	C338.855743,244.543823 349.854248,232.582489 359.483887,219.639313 
	C367.611084,208.715515 374.040985,196.503296 380.890015,184.669128 
	C383.068573,180.904831 384.625427,176.633163 385.671234,172.397247 
	C387.058044,166.779984 387.664581,160.970093 387.884064,154.934311 
z"/>
<path fill="#FE644C" opacity="1.000000" stroke="none" 
	d="
M388.245239,155.088638 
	C387.664581,160.970093 387.058044,166.779984 385.671234,172.397247 
	C384.625427,176.633163 383.068573,180.904831 380.890015,184.669128 
	C374.040985,196.503296 367.611084,208.715515 359.483887,219.639313 
	C349.854248,232.582489 338.855743,244.543823 328.010315,256.532471 
	C321.243713,264.012299 313.836945,270.944885 306.401154,277.778839 
	C298.454681,285.082123 290.207611,292.065216 281.956268,299.027466 
	C276.050812,304.010345 270.155762,309.063568 263.830353,313.475006 
	C256.860260,318.336060 249.361160,322.432343 242.171143,326.985962 
	C235.587982,331.155243 229.097321,335.471313 222.588959,339.757751 
	C216.580231,343.715118 211.001053,348.713074 204.463730,351.336578 
	C200.419739,352.959534 194.291046,352.345764 190.231857,350.386932 
	C180.300339,345.594330 170.980484,339.515045 161.502472,333.807434 
	C152.925201,328.642273 144.096832,323.785919 136.041138,317.889069 
	C124.843231,309.692108 113.850731,301.111481 103.521698,291.856476 
	C90.290886,280.001404 77.182541,267.885712 65.186287,254.813354 
	C54.326328,242.979233 44.727757,229.933044 35.169857,216.980850 
	C30.157816,210.188858 25.077940,202.898346 22.470533,195.024353 
	C19.456453,185.922302 15.367918,177.209900 14.383574,167.053482 
	C13.456524,157.488190 13.056073,147.966263 13.217169,138.477585 
	C13.336214,131.465668 13.814857,124.225037 17.541508,117.645470 
	C19.395061,114.372932 19.599304,110.211891 21.035311,106.648506 
	C25.092503,96.580826 31.724224,88.108917 38.867844,80.153419 
	C47.520275,70.517647 58.683167,64.403915 70.307884,58.915062 
	C79.852089,54.408569 89.676971,51.837833 100.180763,52.024002 
	C112.988129,52.250996 126.080376,51.127731 138.514587,53.450939 
	C150.411438,55.673748 162.199188,59.547993 172.562469,67.362488 
	C182.830078,75.104843 189.770737,85.136528 196.984146,95.210640 
	C197.894531,96.482094 198.297638,98.116791 198.963379,99.646614 
	C202.722916,93.967628 205.793594,87.994888 210.115723,83.135147 
	C215.628296,76.936905 221.752991,71.114975 228.343002,66.086403 
	C236.257584,60.047123 245.612610,57.113441 255.405655,54.682991 
	C267.226776,51.749210 279.087280,51.434464 290.986908,51.159351 
	C298.502655,50.985588 306.354370,51.279839 313.523712,53.274822 
	C326.255219,56.817558 338.201477,62.577938 348.976807,70.468246 
	C361.967163,79.980568 371.352417,92.441078 377.989075,106.916481 
	C382.575867,116.920815 386.040741,127.261971 387.284973,138.447250 
	C387.903595,144.008469 388.882294,149.379959 388.245239,155.088638 
z"/>
</svg>