<svg version="1.1" id="Layer_1" xmlns="http://www.w3.org/2000/svg" xmlns:xlink="http://www.w3.org/1999/xlink" x="0px" y="0px"
	 width="100%" viewBox="0 0 400 400" enable-background="new 0 0 400 400" xml:space="preserve">
<path fill="#828282" opacity="1.000000" stroke="none" 
	d="
M97.872345,51.689735 
	C111.643478,49.478874 125.042648,50.755276 138.011215,53.006733 
	C159.050507,56.659328 177.496902,65.832550 189.720367,84.531769 
	C191.637543,87.464600 194.979294,89.067131 196.118011,92.940353 
	C196.876495,95.520248 201.858795,94.094246 204.165344,90.512032 
	C207.567383,85.228447 210.816345,79.861702 215.493179,75.523254 
	C226.059906,65.721039 237.859955,58.457195 252.093521,54.853107 
	C264.608917,51.684074 277.261383,50.984665 289.960266,50.764481 
	C313.652405,50.353695 335.113892,57.960300 352.960876,73.101639 
	C366.008575,84.171280 376.115082,97.947090 381.769012,114.919113 
	C385.032379,124.715065 387.375214,134.614731 388.843445,144.624710 
	C389.626099,149.960892 389.740417,155.869507 387.975922,161.591812 
	C386.542023,166.242050 386.003235,171.177505 384.678223,175.980240 
	C381.587708,187.182388 375.309723,196.561768 369.543091,206.314575 
	C359.344574,223.562744 345.398560,237.825302 332.367920,252.772812 
	C324.883881,261.357788 316.299408,268.993805 308.085327,276.927612 
	C303.980988,280.891937 299.753357,284.767853 295.257263,288.267151 
	C293.572174,289.578644 294.409973,291.306152 293.337372,292.750214 
	C291.395599,292.491547 289.914459,293.114899 288.314575,294.661285 
	C285.601776,297.283386 282.236206,299.222504 279.195312,301.515411 
	C276.960236,303.200745 273.478058,303.838501 273.772247,307.759888 
	C273.790375,308.001770 273.457275,308.423492 273.202118,308.510284 
	C262.956146,311.994904 255.240570,319.722168 246.144455,325.130096 
	C237.446976,330.300995 228.803619,335.923248 220.368637,341.706848 
	C212.835236,346.872253 205.615341,354.324219 194.799805,352.390656 
	C193.004501,352.069702 191.324707,351.972260 189.655167,350.937714 
	C179.143661,344.424011 168.872208,337.405365 157.875717,331.826294 
	C147.774429,326.701385 138.612000,320.177338 129.341705,313.940735 
	C125.010010,311.026581 120.658394,307.672791 116.317703,304.552032 
	C108.897781,299.217438 103.062553,292.190735 96.074730,286.405670 
	C88.691620,280.293335 82.238579,273.202820 75.641769,266.261353 
	C74.132912,264.673676 72.911942,260.885010 69.296165,263.467804 
	C68.708740,257.973511 64.627815,254.883133 61.554916,251.397888 
	C55.343327,244.352661 50.197090,236.415466 43.830395,229.603195 
	C34.616364,219.744339 29.171505,207.597458 23.051754,196.074173 
	C18.742395,187.959808 15.188508,179.084091 14.162580,169.088303 
	C13.090387,158.641739 13.047993,148.280792 12.664014,137.875183 
	C12.453426,132.168396 13.759400,126.525330 15.153045,121.211960 
	C18.255281,109.384476 23.695688,98.520874 31.106903,88.557793 
	C41.066044,75.169472 53.971622,65.938538 68.866348,58.945721 
	C77.965744,54.673702 87.338562,51.922672 97.872345,51.689735 
z"/>
</svg>