<svg version="1.1" id="Layer_1" xmlns="http://www.w3.org/2000/svg" xmlns:xlink="http://www.w3.org/1999/xlink" x="0px" y="0px"
	 width="100%" viewBox="0 0 400 400" enable-background="new 0 0 400 400" xml:space="preserve">
<path fill="#FFFFFF" opacity="1.000000" stroke="none" 
	d="
M268.000000,401.000000 
	C178.694427,401.000000 89.888847,401.000000 1.041634,401.000000 
	C1.041634,267.736084 1.041634,134.472168 1.041634,1.104123 
	C134.222183,1.104123 267.444489,1.104123 400.833374,1.104123 
	C400.833374,134.333160 400.833374,267.666565 400.833374,401.000000 
	C356.805573,401.000000 312.652802,401.000000 268.000000,401.000000 
M223.120865,353.907440 
	C226.154907,353.268616 229.188904,352.629547 232.222992,351.990967 
	C262.824219,345.550537 288.940063,330.860168 310.765503,308.641724 
	C325.694641,293.443787 336.226135,275.350830 343.998474,255.586807 
	C350.557587,238.907867 353.297211,221.372147 353.704895,203.701492 
	C353.959534,192.666687 351.867828,181.474686 349.926605,170.513062 
	C345.424225,145.089203 334.234772,122.540230 317.405060,103.190819 
	C305.497833,89.500862 291.843079,77.706917 275.676300,68.620979 
	C255.367050,57.206921 233.721313,51.126347 210.889252,49.174557 
	C195.415680,47.851807 179.907852,49.295513 164.706284,53.001389 
	C137.143692,59.720669 113.176819,72.826736 92.779266,92.638290 
	C78.023849,106.969788 67.013840,123.746452 58.893505,142.498184 
	C51.319881,159.987442 47.682980,178.376587 46.999252,197.383713 
	C46.522575,210.634995 48.063686,223.643372 50.912376,236.600677 
	C56.378643,261.464081 67.561722,283.473236 84.195541,302.509674 
	C99.764107,320.326996 118.404594,334.148895 140.498199,343.319977 
	C157.054565,350.192505 174.128769,354.263275 191.931534,354.875946 
	C202.007065,355.222687 212.125519,354.321960 223.120865,353.907440 
z"/>
<path fill="#828282" opacity="1.000000" stroke="none" 
	d="
M222.672760,353.945251 
	C212.125519,354.321960 202.007065,355.222687 191.931534,354.875946 
	C174.128769,354.263275 157.054565,350.192505 140.498199,343.319977 
	C118.404594,334.148895 99.764107,320.326996 84.195541,302.509674 
	C67.561722,283.473236 56.378643,261.464081 50.912376,236.600677 
	C48.063686,223.643372 46.522575,210.634995 46.999252,197.383713 
	C47.682980,178.376587 51.319881,159.987442 58.893505,142.498184 
	C67.013840,123.746452 78.023849,106.969788 92.779266,92.638290 
	C113.176819,72.826736 137.143692,59.720669 164.706284,53.001389 
	C179.907852,49.295513 195.415680,47.851807 210.889252,49.174557 
	C233.721313,51.126347 255.367050,57.206921 275.676300,68.620979 
	C291.843079,77.706917 305.497833,89.500862 317.405060,103.190819 
	C334.234772,122.540230 345.424225,145.089203 349.926605,170.513062 
	C351.867828,181.474686 353.959534,192.666687 353.704895,203.701492 
	C353.297211,221.372147 350.557587,238.907867 343.998474,255.586807 
	C336.226135,275.350830 325.694641,293.443787 310.765503,308.641724 
	C288.940063,330.860168 262.824219,345.550537 232.222992,351.990967 
	C229.188904,352.629547 226.154907,353.268616 222.672760,353.945251 
M281.681274,228.255890 
	C295.460022,219.094772 301.519318,205.842728 301.872467,189.697601 
	C301.997223,183.994583 300.006744,182.191071 294.494202,182.170685 
	C292.162781,182.162079 289.831207,182.182724 287.499756,182.199661 
	C279.765717,182.255859 279.222565,183.294586 277.902374,191.055725 
	C277.095612,195.798447 275.359985,200.798538 272.638306,204.705460 
	C268.256439,210.995438 260.293213,211.226501 255.604599,205.195038 
	C252.561417,201.280243 250.342499,196.277985 249.204758,191.423050 
	C246.939117,181.755157 247.370316,182.444748 237.793915,182.475693 
	C237.460861,182.476776 237.127777,182.480820 236.794739,182.485504 
	C228.482101,182.602493 225.636581,185.554062 226.062607,193.955780 
	C226.196411,196.594589 226.667343,199.255737 227.315643,201.822922 
	C233.941116,228.058853 258.160614,240.122589 281.681274,228.255890 
M146.550034,233.275375 
	C165.991501,229.021530 177.797821,208.123962 176.823120,189.199265 
	C176.623093,185.315582 174.566833,182.687622 169.990967,183.125916 
	C167.515900,183.362991 165.001282,183.181793 162.504593,183.199738 
	C154.769745,183.255325 154.303101,184.320160 152.879883,192.036301 
	C151.954224,197.054855 149.937302,202.312988 146.955185,206.403793 
	C142.901459,211.964615 135.305969,211.971802 130.965302,206.577011 
	C127.957085,202.838257 125.604897,198.088593 124.470039,193.423187 
	C121.870560,182.736725 123.650826,183.361252 110.843994,183.509277 
	C103.753487,183.591217 100.941414,186.137329 101.052170,193.402512 
	C101.382843,215.095276 119.616425,238.436127 146.550034,233.275375 
z"/>
<path fill="#030303" opacity="1.000000" stroke="none" 
	d="
M281.367249,228.450043 
	C258.160614,240.122589 233.941116,228.058853 227.315643,201.822922 
	C226.667343,199.255737 226.196411,196.594589 226.062607,193.955780 
	C225.636581,185.554062 228.482101,182.602493 236.794739,182.485504 
	C237.127777,182.480820 237.460861,182.476776 237.793915,182.475693 
	C247.370316,182.444748 246.939117,181.755157 249.204758,191.423050 
	C250.342499,196.277985 252.561417,201.280243 255.604599,205.195038 
	C260.293213,211.226501 268.256439,210.995438 272.638306,204.705460 
	C275.359985,200.798538 277.095612,195.798447 277.902374,191.055725 
	C279.222565,183.294586 279.765717,182.255859 287.499756,182.199661 
	C289.831207,182.182724 292.162781,182.162079 294.494202,182.170685 
	C300.006744,182.191071 301.997223,183.994583 301.872467,189.697601 
	C301.519318,205.842728 295.460022,219.094772 281.367249,228.450043 
z"/>
<path fill="#030303" opacity="1.000000" stroke="none" 
	d="
M146.137665,233.403564 
	C119.616425,238.436127 101.382843,215.095276 101.052170,193.402512 
	C100.941414,186.137329 103.753487,183.591217 110.843994,183.509277 
	C123.650826,183.361252 121.870560,182.736725 124.470039,193.423187 
	C125.604897,198.088593 127.957085,202.838257 130.965302,206.577011 
	C135.305969,211.971802 142.901459,211.964615 146.955185,206.403793 
	C149.937302,202.312988 151.954224,197.054855 152.879883,192.036301 
	C154.303101,184.320160 154.769745,183.255325 162.504593,183.199738 
	C165.001282,183.181793 167.515900,183.362991 169.990967,183.125916 
	C174.566833,182.687622 176.623093,185.315582 176.823120,189.199265 
	C177.797821,208.123962 165.991501,229.021530 146.137665,233.403564 
z"/>
</svg>