<svg version="1.1" id="Layer_1" xmlns="http://www.w3.org/2000/svg" xmlns:xlink="http://www.w3.org/1999/xlink" x="0px" y="0px"
	 width="100%" viewBox="0 0 400 400" enable-background="new 0 0 400 400" xml:space="preserve">
<path fill="#FFFFFF" opacity="1.000000" stroke="none" 
	d="
M268.000000,401.000000 
	C178.694427,401.000000 89.888847,401.000000 1.041634,401.000000 
	C1.041634,267.736084 1.041634,134.472168 1.041634,1.104123 
	C134.222183,1.104123 267.444489,1.104123 400.833374,1.104123 
	C400.833374,134.333160 400.833374,267.666565 400.833374,401.000000 
	C356.805573,401.000000 312.652802,401.000000 268.000000,401.000000 
M336.504425,132.005142 
	C327.840698,112.739662 313.677185,97.689140 298.196655,84.020561 
	C286.917297,74.061440 273.675842,66.813042 259.721130,60.800182 
	C243.885223,53.976753 227.326965,50.516495 210.382721,49.172676 
	C196.898529,48.103275 183.405502,49.365784 169.989578,51.880447 
	C149.199631,55.777287 130.234497,64.072807 112.993866,75.817215 
	C96.158394,87.285614 82.147934,101.864952 71.140213,119.265007 
	C51.112244,150.923523 43.649658,185.393387 48.156231,222.335709 
	C50.502865,241.572052 56.717854,259.732544 66.260605,276.794678 
	C81.055595,303.247620 101.969841,323.287903 128.405365,337.732361 
	C146.288940,347.504089 165.668549,353.092041 185.784668,354.739380 
	C205.184692,356.328003 224.637329,355.048157 243.522522,349.203583 
	C271.907349,340.419067 296.167786,325.466949 315.779816,302.863403 
	C330.532867,285.859955 340.911438,266.640228 347.333038,245.220978 
	C353.884857,223.367325 355.376373,201.015640 351.847504,178.534683 
	C349.334656,162.526123 344.632416,147.046143 336.504425,132.005142 
z"/>
<path fill="#FE644C" opacity="1.000000" stroke="none" 
	d="
M336.712463,132.321442 
	C344.632416,147.046143 349.334656,162.526123 351.847504,178.534683 
	C355.376373,201.015640 353.884857,223.367325 347.333038,245.220978 
	C340.911438,266.640228 330.532867,285.859955 315.779816,302.863403 
	C296.167786,325.466949 271.907349,340.419067 243.522522,349.203583 
	C224.637329,355.048157 205.184692,356.328003 185.784668,354.739380 
	C165.668549,353.092041 146.288940,347.504089 128.405365,337.732361 
	C101.969841,323.287903 81.055595,303.247620 66.260605,276.794678 
	C56.717854,259.732544 50.502865,241.572052 48.156231,222.335709 
	C43.649658,185.393387 51.112244,150.923523 71.140213,119.265007 
	C82.147934,101.864952 96.158394,87.285614 112.993866,75.817215 
	C130.234497,64.072807 149.199631,55.777287 169.989578,51.880447 
	C183.405502,49.365784 196.898529,48.103275 210.382721,49.172676 
	C227.326965,50.516495 243.885223,53.976753 259.721130,60.800182 
	C273.675842,66.813042 286.917297,74.061440 298.196655,84.020561 
	C313.677185,97.689140 327.840698,112.739662 336.712463,132.321442 
M172.070969,146.512573 
	C170.425217,149.889328 167.643845,153.170380 167.349655,156.661041 
	C166.514648,166.568680 166.534851,176.562622 166.576828,186.521088 
	C166.589111,189.434753 167.483398,192.464035 168.532150,195.228348 
	C170.527771,200.488434 175.376999,203.722275 180.403046,203.662308 
	C185.802902,203.597855 190.852707,200.342270 192.277786,194.618256 
	C195.743790,180.696655 196.170227,166.530350 192.148544,152.695328 
	C189.476044,143.501648 180.837982,140.961914 172.070969,146.512573 
M214.273666,201.362946 
	C223.250168,206.077698 231.412933,202.635361 233.848206,192.831741 
	C234.803497,188.986084 235.528076,184.926880 235.393280,180.998016 
	C235.075394,171.732635 235.139481,162.285172 233.249557,153.289398 
	C231.288559,143.955307 220.730835,140.116257 214.284439,145.837234 
	C211.322784,148.465637 208.665726,152.968124 208.389847,156.802048 
	C207.594543,167.854736 207.618805,179.029068 208.322922,190.091858 
	C208.558716,193.796585 211.813385,197.309174 214.273666,201.362946 
M189.438354,251.040009 
	C198.358353,260.534241 210.737213,258.924286 216.225174,247.211182 
	C221.060242,236.891571 220.997726,226.220764 216.165451,215.879471 
	C213.307983,209.764343 208.464294,205.839355 201.294678,206.015808 
	C194.373276,206.186172 189.641891,210.102219 187.085434,216.116119 
	C182.134964,227.761841 182.225143,239.354309 189.438354,251.040009 
z"/>
<path fill="#060202" opacity="1.000000" stroke="none" 
	d="
M172.351364,146.275711 
	C180.837982,140.961914 189.476044,143.501648 192.148544,152.695328 
	C196.170227,166.530350 195.743790,180.696655 192.277786,194.618256 
	C190.852707,200.342270 185.802902,203.597855 180.403046,203.662308 
	C175.376999,203.722275 170.527771,200.488434 168.532150,195.228348 
	C167.483398,192.464035 166.589111,189.434753 166.576828,186.521088 
	C166.534851,176.562622 166.514648,166.568680 167.349655,156.661041 
	C167.643845,153.170380 170.425217,149.889328 172.351364,146.275711 
z"/>
<path fill="#060202" opacity="1.000000" stroke="none" 
	d="
M213.980896,201.136261 
	C211.813385,197.309174 208.558716,193.796585 208.322922,190.091858 
	C207.618805,179.029068 207.594543,167.854736 208.389847,156.802048 
	C208.665726,152.968124 211.322784,148.465637 214.284439,145.837234 
	C220.730835,140.116257 231.288559,143.955307 233.249557,153.289398 
	C235.139481,162.285172 235.075394,171.732635 235.393280,180.998016 
	C235.528076,184.926880 234.803497,188.986084 233.848206,192.831741 
	C231.412933,202.635361 223.250168,206.077698 213.980896,201.136261 
z"/>
<path fill="#050202" opacity="1.000000" stroke="none" 
	d="
M189.216370,250.750214 
	C182.225143,239.354309 182.134964,227.761841 187.085434,216.116119 
	C189.641891,210.102219 194.373276,206.186172 201.294678,206.015808 
	C208.464294,205.839355 213.307983,209.764343 216.165451,215.879471 
	C220.997726,226.220764 221.060242,236.891571 216.225174,247.211182 
	C210.737213,258.924286 198.358353,260.534241 189.216370,250.750214 
z"/>
</svg>