<svg version="1.1" id="Layer_1" xmlns="http://www.w3.org/2000/svg" xmlns:xlink="http://www.w3.org/1999/xlink" x="0px" y="0px"
	 width="100%" viewBox="0 0 400 400" enable-background="new 0 0 400 400" xml:space="preserve">
<path fill="#FFFFFF" opacity="1.000000" stroke="none" 
	d="
M278.000000,401.000000 
	C185.362137,401.000000 93.224258,401.000000 1.086393,401.000000 
	C1.057597,400.862183 1.003559,400.724365 1.003555,400.586548 
	C0.999974,267.461487 1.000000,134.336426 1.000000,1.105685 
	C134.221130,1.105685 267.442383,1.105685 400.831818,1.105685 
	C400.831818,134.333160 400.831818,267.666565 400.831818,401.000000 
	C360.140991,401.000000 319.320496,401.000000 278.000000,401.000000 
M130.488037,226.522049 
	C130.488037,226.522049 130.382599,226.407669 130.221222,225.820633 
	C129.343552,224.760773 128.465881,223.700912 127.488014,222.522049 
	C127.488014,222.522049 127.382584,222.407684 127.221214,221.820633 
	C126.343544,220.760757 125.465874,219.700897 124.487480,218.519623 
	C124.487480,218.519623 124.378799,218.405319 124.205040,217.787766 
	C119.746956,209.717590 113.462769,202.693832 111.511131,193.201309 
	C108.932709,180.660309 105.870430,168.205017 110.046402,155.491760 
	C112.286430,148.672272 117.357231,145.340134 124.229042,150.704361 
	C126.114799,152.483643 128.000565,154.262939 130.189636,156.673172 
	C144.688217,178.870651 154.802490,202.690460 156.590179,230.068192 
	C174.360886,225.899124 191.501480,221.877884 208.001328,218.006958 
	C208.001328,223.856506 207.488922,229.008133 208.112549,234.018356 
	C209.260101,243.238068 212.418686,251.744858 219.510452,258.478119 
	C219.510452,258.478119 219.617386,258.592377 219.778809,259.179413 
	C220.656479,260.239258 221.534149,261.299133 222.517731,262.483673 
	C222.517731,262.483673 222.639481,262.592987 222.838791,263.175140 
	C224.363419,264.244293 225.888031,265.313416 227.524353,266.488495 
	C227.524353,266.488495 227.638824,266.591431 227.840439,267.178406 
	C231.363647,269.578796 234.886841,271.979187 238.522034,274.479187 
	C238.522034,274.479187 238.633041,274.579865 238.828934,275.297882 
	C237.253601,281.055847 236.245926,287.052704 233.950089,292.507416 
	C231.439133,298.473206 223.377899,301.012726 217.515640,298.069519 
	C212.418365,295.510406 207.655319,292.277252 202.789230,289.269684 
	C200.419739,287.805176 198.152206,286.175690 195.838531,284.620880 
	C195.417313,284.904572 194.996109,285.188263 194.574905,285.471954 
	C195.369553,291.118134 196.590332,296.747406 196.814850,302.416168 
	C196.975006,306.458984 198.670441,307.625305 202.143570,309.272644 
	C216.916183,316.279449 231.473007,323.767212 245.885513,331.495422 
	C252.330963,334.951569 258.250427,339.388611 264.520325,343.489105 
	C264.520325,343.489105 264.636292,343.593079 264.829407,344.165131 
	C266.538879,345.481323 268.248322,346.797485 270.238007,348.714874 
	C271.867371,350.354065 273.311279,352.255066 275.169403,353.571350 
	C277.985657,355.566406 281.355225,358.934540 284.015503,358.537964 
	C289.224182,357.761566 294.105530,354.789154 299.109802,352.730865 
	C293.729065,348.506561 288.921326,344.732147 283.807098,340.322510 
	C275.964722,330.001343 276.032562,319.065918 281.070435,307.622925 
	C282.624969,304.091858 284.350739,303.588593 287.890594,305.312317 
	C299.025421,310.734436 310.437286,315.209381 323.296356,314.056671 
	C331.135071,313.353973 337.518127,310.431732 342.039001,303.851410 
	C350.731262,291.199310 350.871826,277.049774 349.312592,262.586121 
	C348.905304,258.808075 348.651520,255.013489 348.208679,249.841873 
	C357.043152,256.847900 365.274200,261.403839 373.113556,249.222641 
	C354.049744,235.749283 334.689514,222.066422 314.410461,207.734192 
	C313.070862,213.553940 311.824280,218.081482 311.098480,222.691025 
	C310.893921,223.990097 311.817322,226.085724 312.904785,226.864441 
	C318.221527,230.671646 323.879883,234.004684 329.160248,237.857849 
	C330.572083,238.888062 332.054810,241.303726 331.828888,242.836273 
	C330.905121,249.102875 330.199951,255.631516 327.818878,261.405792 
	C322.815491,273.539490 313.349579,279.039398 301.443817,277.673523 
	C293.992554,276.818726 286.606567,273.787628 279.649353,270.700714 
	C273.137054,267.811188 267.228333,263.561279 261.004303,259.982300 
	C261.004303,259.982300 261.083740,259.945129 260.804504,259.336670 
	C259.216827,258.186157 257.629181,257.035645 255.832153,255.362061 
	C255.259323,254.893967 254.686493,254.425873 253.828140,253.350586 
	C252.747620,252.112122 251.667099,250.873672 250.483749,249.519043 
	C250.483749,249.519043 250.376266,249.407166 250.193359,248.764832 
	C243.961182,237.288773 245.804550,228.172775 257.279724,221.574005 
	C262.815735,218.390503 269.746643,217.300568 276.204956,216.174606 
	C280.232697,215.472397 284.557343,216.473145 290.414886,216.803650 
	C287.430939,213.200500 285.242889,210.558441 283.008118,207.991867 
	C283.008118,207.991867 283.083679,207.945251 282.813904,207.338501 
	C281.560852,205.864426 280.307770,204.390366 279.008148,202.991837 
	C279.008148,202.991837 279.083679,202.945251 278.813904,202.338501 
	C277.560852,200.864441 276.307770,199.390366 275.008148,197.991837 
	C275.008148,197.991837 275.083679,197.945251 274.813904,197.338501 
	C273.560822,195.864441 272.307770,194.390381 271.008148,192.991837 
	C271.008148,192.991837 271.083679,192.945251 270.813904,192.338501 
	C269.560852,190.864426 268.307770,189.390366 267.008148,187.991837 
	C267.008148,187.991837 267.083679,187.945251 266.813904,187.338501 
	C265.560852,185.864441 264.307770,184.390366 263.008057,182.991806 
	C263.008057,182.991806 263.083618,182.945206 262.811584,182.336090 
	C261.736816,181.102417 260.662018,179.868744 259.485535,178.523880 
	C259.485535,178.523880 259.384949,178.411682 259.224731,177.824265 
	C258.163879,176.511597 257.102997,175.198929 255.892822,173.442200 
	C255.710083,173.160233 255.451828,172.999878 255.280502,172.289291 
	C259.506104,169.945450 263.731689,167.601593 268.815643,164.781647 
	C265.218781,162.253021 262.164459,160.105820 258.910095,157.486862 
	C258.569977,157.644150 258.229889,157.801422 257.095551,157.996414 
	C250.560989,159.706894 244.026428,161.417374 237.557709,163.110611 
	C237.296478,162.401596 237.164856,162.230423 237.204056,162.119751 
	C237.418518,161.514282 237.696335,160.931366 237.913773,160.326813 
	C244.299988,142.569824 248.472305,124.540611 243.949600,105.610710 
	C241.847046,96.810425 238.692642,88.447418 231.803909,81.331299 
	C230.907166,80.540131 230.010422,79.748955 228.812531,78.340935 
	C227.584396,77.236496 226.461288,75.979553 225.112350,75.050514 
	C205.111359,61.275555 181.216232,72.013390 172.954559,93.804947 
	C167.757721,107.512550 165.853500,121.860001 164.569916,137.710327 
	C161.726822,130.920914 159.765961,125.097733 156.928741,119.738495 
	C152.981384,112.282341 148.377548,105.173744 144.008240,97.991821 
	C144.008240,97.991821 144.083618,97.945229 143.798813,97.318871 
	C138.067123,87.798561 126.105270,84.190582 117.727272,90.320656 
	C113.175156,93.651382 109.287468,98.300835 106.119759,103.037399 
	C95.871841,118.360771 91.714752,135.560242 92.039574,153.881439 
	C92.107277,157.700104 92.680206,161.509796 93.020302,165.323624 
	C83.065002,149.194458 77.636185,131.629517 74.366280,112.743233 
	C54.051781,124.544991 33.943432,136.226974 13.904651,147.868561 
	C18.431665,160.156738 20.026468,160.707809 31.082605,156.154877 
	C33.616890,155.111237 36.977501,156.074203 40.167156,156.637054 
	C40.740211,157.105438 41.313263,157.573837 42.197182,158.682571 
	C48.065235,169.271576 53.698399,180.000443 59.889278,190.397217 
	C63.613586,196.651688 68.206749,202.388779 72.510841,208.480164 
	C72.510841,208.480164 72.620811,208.594254 72.791992,209.205048 
	C74.331291,211.256058 75.870583,213.307068 77.510559,215.475189 
	C77.510559,215.475189 77.615021,215.588959 77.774628,216.174500 
	C78.831512,217.477539 79.888397,218.780563 80.991615,220.008057 
	C80.991615,220.008057 80.916321,220.054764 81.186920,220.662598 
	C82.443886,222.146301 83.700859,223.630005 85.256638,225.731171 
	C87.798203,228.500229 90.339760,231.269302 92.610802,234.729019 
	C91.049431,235.156342 89.416954,235.416550 87.941010,236.044632 
	C84.523163,237.499054 81.026299,238.884232 77.901237,240.840317 
	C76.946487,241.437958 76.338432,244.156769 76.870743,245.298447 
	C79.532272,251.006699 82.625702,256.513580 85.926750,262.772949 
	C87.028633,260.719635 87.571739,259.364288 88.414322,258.231720 
	C89.298904,257.042694 90.357628,255.919464 91.533882,255.020996 
	C104.215836,245.333832 118.515556,239.959106 134.467957,238.958755 
	C136.031693,238.860687 137.559616,238.191818 139.864975,237.588943 
	C137.257660,234.705627 135.419312,232.672653 133.483047,230.522598 
	C133.483047,230.522598 133.382599,230.407669 133.221222,229.820633 
	C132.343552,228.760773 131.465897,227.700897 130.488037,226.522049 
z"/>
<path fill="#828282" opacity="1.000000" stroke="none" 
	d="
M129.886322,156.042221 
	C128.000565,154.262939 126.114799,152.483643 124.100876,150.016663 
	C123.745644,145.659363 121.634651,144.166199 118.121368,143.979309 
	C111.649185,143.635071 106.066589,147.998215 105.225410,155.507507 
	C104.482582,162.138824 104.727791,168.927216 105.047791,175.621826 
	C105.791328,191.176849 111.989586,204.689102 121.375076,216.860046 
	C121.997528,217.667236 123.360352,217.903488 124.378799,218.405319 
	C124.378799,218.405319 124.487480,218.519623 124.361870,218.945175 
	C125.285034,220.383041 126.333809,221.395370 127.382584,222.407684 
	C127.382584,222.407684 127.488014,222.522049 127.362144,222.946396 
	C128.285049,224.383041 129.333832,225.395355 130.382599,226.407669 
	C130.382599,226.407669 130.488037,226.522049 130.362137,226.946396 
	C131.285019,228.383057 132.333801,229.395370 133.382599,230.407669 
	C133.382599,230.407669 133.483047,230.522598 133.359955,230.958618 
	C134.146225,234.227722 133.064484,234.908493 130.189835,235.085495 
	C118.294708,235.817886 107.177612,239.364563 96.960754,245.487732 
	C92.528206,248.144241 88.357719,251.238037 84.110016,254.105026 
	C77.989510,246.184341 79.214668,242.871063 88.825592,240.580856 
	C89.945435,240.314011 91.300179,240.462189 92.171936,239.868576 
	C93.277214,239.115952 94.369011,237.911652 94.735870,236.683807 
	C94.927078,236.043823 93.550011,234.935272 92.881317,234.038361 
	C90.339760,231.269302 87.798203,228.500229 85.114883,225.034409 
	C84.741829,221.848221 84.115547,219.732925 80.916321,220.054764 
	C80.916321,220.054764 80.991615,220.008057 80.980797,219.661850 
	C79.851662,218.073410 78.733337,216.831192 77.615021,215.588959 
	C77.615021,215.588959 77.510559,215.475189 77.636810,215.057434 
	C76.048981,212.624527 74.334900,210.609390 72.620819,208.594254 
	C72.620811,208.594254 72.510841,208.480164 72.636955,208.060638 
	C72.396309,206.562805 72.201424,205.383713 71.637047,204.421310 
	C63.023911,189.733978 54.402531,175.050903 45.634815,160.455902 
	C44.948315,159.313141 43.161659,158.831253 41.886318,158.042221 
	C41.313263,157.573837 40.740211,157.105438 40.068909,155.969498 
	C39.870827,151.865448 37.931358,150.383270 34.746960,151.056610 
	C30.591749,151.935257 26.549665,153.346710 22.396696,154.239548 
	C21.285244,154.478500 19.947329,153.664062 18.713381,153.333237 
	C19.155167,152.082809 19.402502,150.706070 20.104837,149.624893 
	C20.600224,148.862289 21.691971,148.464340 22.553354,147.965591 
	C37.637093,139.231964 52.713543,130.485596 67.825409,121.800873 
	C70.799744,120.091530 72.434433,120.781700 73.404640,124.458824 
	C75.222870,131.349976 77.309395,138.216644 79.932014,144.836914 
	C82.864090,152.238342 86.315491,159.459351 90.004166,166.516739 
	C90.854462,168.143600 93.590889,168.784653 95.459351,169.879364 
	C95.969025,168.461212 96.891373,167.051163 96.919411,165.623550 
	C97.068146,158.050400 96.407837,150.418045 97.111885,142.907822 
	C98.746742,125.468437 104.735756,109.904945 117.287308,96.985298 
	C124.266785,89.801140 132.201797,90.234444 139.413300,95.635590 
	C140.780029,96.659210 142.517319,97.188072 144.083618,97.945229 
	C144.083618,97.945229 144.008240,97.991821 144.018829,98.335358 
	C144.282715,99.627708 144.408676,100.634247 144.808594,101.516609 
	C149.986954,112.941505 155.156860,124.370850 160.458145,135.738800 
	C161.345718,137.642105 162.649826,139.459335 164.144547,140.925873 
	C164.895859,141.663010 166.610535,141.914520 167.691452,141.630814 
	C168.326645,141.464111 168.903931,139.829391 168.944473,138.832108 
	C169.518387,124.712082 172.470871,111.109665 176.505951,97.565079 
	C180.963913,82.601013 199.937576,67.747917 216.672455,74.722069 
	C220.707184,76.403526 224.960754,77.559921 229.113678,78.957779 
	C230.010422,79.748955 230.907166,80.540131 231.914825,81.991760 
	C232.424850,83.902771 232.550125,85.343330 233.265579,86.374382 
	C240.113693,96.243240 241.702972,107.626389 241.850891,119.082375 
	C242.018921,132.094910 238.681808,144.704849 234.227188,156.840485 
	C232.729492,160.920578 234.870331,162.981720 236.723373,165.044678 
	C237.877487,166.329559 240.824387,166.827362 242.730530,166.458359 
	C248.338562,165.372681 253.828735,163.678116 259.365051,162.221924 
	C259.564606,162.601898 259.764160,162.981873 259.963745,163.361832 
	C258.276062,164.430893 256.462341,165.346222 254.929047,166.603592 
	C252.381424,168.692734 251.454483,170.952545 255.118042,172.961151 
	C255.451828,172.999878 255.710083,173.160233 255.959549,174.049774 
	C257.145844,175.908783 258.265381,177.160233 259.384949,178.411682 
	C259.384949,178.411682 259.485535,178.523880 259.361938,178.947845 
	C260.520111,180.562958 261.801880,181.754074 263.083618,182.945206 
	C263.083618,182.945206 263.008057,182.991806 263.019318,183.340576 
	C263.260773,186.175400 263.903839,188.268250 267.083679,187.945251 
	C267.083679,187.945251 267.008148,187.991837 267.019348,188.340576 
	C267.260773,191.175400 267.903839,193.268250 271.083679,192.945251 
	C271.083679,192.945251 271.008148,192.991837 271.019348,193.340576 
	C271.260773,196.175400 271.903839,198.268250 275.083679,197.945251 
	C275.083679,197.945251 275.008148,197.991837 275.019348,198.340576 
	C275.260773,201.175400 275.903839,203.268250 279.083679,202.945251 
	C279.083679,202.945251 279.008148,202.991837 279.019348,203.340576 
	C279.260773,206.175400 279.903839,208.268250 283.083679,207.945251 
	C283.083679,207.945251 283.008118,207.991867 283.011780,208.382797 
	C283.293732,212.529526 280.614624,212.010727 278.322449,211.995071 
	C269.278748,211.933334 260.046844,212.325562 252.815857,218.260590 
	C241.772629,227.324631 239.308823,236.486465 247.374313,247.849197 
	C247.954697,248.666840 249.356430,248.901459 250.376266,249.407166 
	C250.376266,249.407166 250.483749,249.519043 250.360992,249.947052 
	C251.530029,251.569290 252.821854,252.763519 254.113663,253.957764 
	C254.686493,254.425873 255.259323,254.893967 255.930054,256.019165 
	C256.085938,260.282684 258.635712,260.035217 261.083740,259.945129 
	C261.083740,259.945129 261.004303,259.982300 261.017334,260.328735 
	C261.663818,261.731293 262.039307,263.218536 262.971100,263.776154 
	C271.281281,268.749390 279.426422,274.115234 288.152100,278.240387 
	C295.171265,281.558716 302.983795,283.170502 310.928894,281.494904 
	C325.365204,278.450378 331.968079,268.113770 334.930847,254.820511 
	C337.508087,243.257233 336.834229,238.343414 324.689850,231.064835 
	C323.147888,230.140656 321.631073,229.169647 320.144196,228.159195 
	C314.563995,224.367050 314.143616,222.664780 317.026886,216.369705 
	C318.102905,214.020508 318.919769,213.496765 321.377228,215.440323 
	C327.401947,220.205215 333.838379,224.449097 340.104218,228.909592 
	C348.240997,234.701965 356.427429,240.428574 364.412018,246.423843 
	C365.111694,246.949188 365.095459,249.816849 364.352264,250.639893 
	C360.701904,254.682678 357.357025,251.633377 353.835724,249.898819 
	C350.962921,248.483673 347.800201,247.657120 344.990204,246.649948 
	C344.990204,259.756287 345.661285,271.657623 344.784485,283.443817 
	C344.041229,293.435120 340.335785,302.502472 330.281616,307.386597 
	C321.755157,311.528534 313.146332,310.762146 304.605927,307.950165 
	C298.629028,305.982300 292.851501,303.395752 287.025085,300.988434 
	C283.207672,299.411163 280.423737,299.326111 277.993774,303.714508 
	C270.944855,316.444275 272.691284,327.328949 280.213287,338.619690 
	C280.972565,339.759338 282.788208,340.195221 284.113617,340.957733 
	C288.921326,344.732147 293.729065,348.506561 299.109802,352.730865 
	C294.105530,354.789154 289.224182,357.761566 284.015503,358.537964 
	C281.355225,358.934540 277.985657,355.566406 275.169403,353.571350 
	C273.311279,352.255066 271.867371,350.354065 270.104919,348.016663 
	C269.625977,344.024841 268.382477,342.016754 264.636292,343.593079 
	C264.636292,343.593079 264.520325,343.489105 264.639771,343.065216 
	C264.199768,341.504822 263.940338,339.967224 263.036530,339.291168 
	C245.757950,326.368134 227.308670,315.488464 207.185669,307.546265 
	C200.039688,304.725830 197.866974,299.877411 199.820786,291.253235 
	C201.060669,291.685455 202.411957,291.892181 203.461090,292.567993 
	C208.021820,295.505859 212.155151,299.512543 217.105042,301.314606 
	C221.173676,302.795959 226.658493,303.014679 230.664520,301.516754 
	C240.244476,297.934723 241.405884,288.497803 242.707275,279.869232 
	C242.937073,278.345612 240.069977,276.354889 238.633041,274.579865 
	C238.633041,274.579865 238.522034,274.479187 238.640625,274.058167 
	C237.156433,269.393097 231.839584,266.024414 227.638824,266.591431 
	C227.638824,266.591431 227.524353,266.488495 227.642502,266.049072 
	C227.409653,262.302063 225.719559,261.267700 222.639481,262.592987 
	C222.639481,262.592987 222.517731,262.483673 222.640747,262.056458 
	C221.714966,260.616974 220.666168,259.604675 219.617386,258.592377 
	C219.617386,258.592377 219.510452,258.478119 219.636856,258.058472 
	C219.394562,256.558807 219.278809,255.283020 218.617935,254.429077 
	C212.180862,246.111496 211.656433,236.450912 211.972122,226.529266 
	C212.067978,223.516251 211.685242,220.488007 211.521225,217.458069 
	C212.643158,216.934769 215.035080,216.599091 216.010590,215.243881 
	C226.214554,201.068344 240.758377,201.204422 255.815674,202.756805 
	C256.729370,202.851028 257.677551,202.610748 258.557587,202.530838 
	C259.055206,196.241882 256.428192,193.107986 250.582672,192.899078 
	C246.176025,188.546234 242.068130,184.331665 237.961060,179.713623 
	C236.436829,175.073227 233.444351,176.993271 231.153625,178.017044 
	C225.627014,180.487000 220.269272,183.334808 214.835541,186.034195 
	C213.501709,174.180786 212.597992,163.010193 210.904297,151.960709 
	C209.127411,140.368469 207.190918,128.696655 201.062851,118.364304 
	C200.214752,116.934341 198.304840,116.134140 196.624817,114.937691 
	C195.894653,114.259880 195.426208,113.686783 194.964294,112.710144 
	C193.728409,110.873657 192.686340,108.509323 191.204300,108.190544 
	C187.456940,107.384537 184.161240,108.515770 181.849442,112.199394 
	C176.923889,120.047836 174.810181,128.591110 174.893127,137.726837 
	C174.996536,149.116745 174.577103,160.570206 175.645233,171.876999 
	C176.849579,184.625763 184.315948,195.002792 191.069168,205.457840 
	C191.689392,206.418030 193.255371,206.767349 194.448959,207.377289 
	C194.515732,207.354218 194.656738,207.345535 194.512787,207.737244 
	C194.446930,212.468811 197.001602,212.262939 200.167297,211.478928 
	C204.711929,210.353394 205.737854,210.737213 207.383713,213.530258 
	C205.425400,213.912567 203.486465,214.218109 201.583679,214.674393 
	C189.369629,217.603302 177.143463,220.486099 164.967377,223.566315 
	C161.480545,224.448380 159.603607,223.723221 159.004623,219.976517 
	C155.463409,197.825378 146.041183,178.019302 134.387619,159.156158 
	C133.509018,157.734009 131.415237,157.062607 129.886322,156.042221 
z"/>
<path fill="#828282" opacity="1.000000" stroke="none" 
	d="
M283.960358,340.640137 
	C282.788208,340.195221 280.972565,339.759338 280.213287,338.619690 
	C272.691284,327.328949 270.944855,316.444275 277.993774,303.714508 
	C280.423737,299.326111 283.207672,299.411163 287.025085,300.988434 
	C292.851501,303.395752 298.629028,305.982300 304.605927,307.950165 
	C313.146332,310.762146 321.755157,311.528534 330.281616,307.386597 
	C340.335785,302.502472 344.041229,293.435120 344.784485,283.443817 
	C345.661285,271.657623 344.990204,259.756287 344.990204,246.649948 
	C347.800201,247.657120 350.962921,248.483673 353.835724,249.898819 
	C357.357025,251.633377 360.701904,254.682678 364.352264,250.639893 
	C365.095459,249.816849 365.111694,246.949188 364.412018,246.423843 
	C356.427429,240.428574 348.240997,234.701965 340.104218,228.909592 
	C333.838379,224.449097 327.401947,220.205215 321.377228,215.440323 
	C318.919769,213.496765 318.102905,214.020508 317.026886,216.369705 
	C314.143616,222.664780 314.563995,224.367050 320.144196,228.159195 
	C321.631073,229.169647 323.147888,230.140656 324.689850,231.064835 
	C336.834229,238.343414 337.508087,243.257233 334.930847,254.820511 
	C331.968079,268.113770 325.365204,278.450378 310.928894,281.494904 
	C302.983795,283.170502 295.171265,281.558716 288.152100,278.240387 
	C279.426422,274.115234 271.281281,268.749390 262.971100,263.776154 
	C262.039307,263.218536 261.663818,261.731293 261.042175,260.292603 
	C267.228333,263.561279 273.137054,267.811188 279.649353,270.700714 
	C286.606567,273.787628 293.992554,276.818726 301.443817,277.673523 
	C313.349579,279.039398 322.815491,273.539490 327.818878,261.405792 
	C330.199951,255.631516 330.905121,249.102875 331.828888,242.836273 
	C332.054810,241.303726 330.572083,238.888062 329.160248,237.857849 
	C323.879883,234.004684 318.221527,230.671646 312.904785,226.864441 
	C311.817322,226.085724 310.893921,223.990097 311.098480,222.691025 
	C311.824280,218.081482 313.070862,213.553940 314.410461,207.734192 
	C334.689514,222.066422 354.049744,235.749283 373.113556,249.222641 
	C365.274200,261.403839 357.043152,256.847900 348.208679,249.841873 
	C348.651520,255.013489 348.905304,258.808075 349.312592,262.586121 
	C350.871826,277.049774 350.731262,291.199310 342.039001,303.851410 
	C337.518127,310.431732 331.135071,313.353973 323.296356,314.056671 
	C310.437286,315.209381 299.025421,310.734436 287.890594,305.312317 
	C284.350739,303.588593 282.624969,304.091858 281.070435,307.622925 
	C276.032562,319.065918 275.964722,330.001343 283.960358,340.640137 
z"/>
<path fill="#828282" opacity="1.000000" stroke="none" 
	d="
M143.941223,97.632050 
	C142.517319,97.188072 140.780029,96.659210 139.413300,95.635590 
	C132.201797,90.234444 124.266785,89.801140 117.287308,96.985298 
	C104.735756,109.904945 98.746742,125.468437 97.111885,142.907822 
	C96.407837,150.418045 97.068146,158.050400 96.919411,165.623550 
	C96.891373,167.051163 95.969025,168.461212 95.459351,169.879364 
	C93.590889,168.784653 90.854462,168.143600 90.004166,166.516739 
	C86.315491,159.459351 82.864090,152.238342 79.932014,144.836914 
	C77.309395,138.216644 75.222870,131.349976 73.404640,124.458824 
	C72.434433,120.781700 70.799744,120.091530 67.825409,121.800873 
	C52.713543,130.485596 37.637093,139.231964 22.553354,147.965591 
	C21.691971,148.464340 20.600224,148.862289 20.104837,149.624893 
	C19.402502,150.706070 19.155167,152.082809 18.713381,153.333237 
	C19.947329,153.664062 21.285244,154.478500 22.396696,154.239548 
	C26.549665,153.346710 30.591749,151.935257 34.746960,151.056610 
	C37.931358,150.383270 39.870827,151.865448 39.964241,155.707825 
	C36.977501,156.074203 33.616890,155.111237 31.082605,156.154877 
	C20.026468,160.707809 18.431665,160.156738 13.904651,147.868561 
	C33.943432,136.226974 54.051781,124.544991 74.366280,112.743233 
	C77.636185,131.629517 83.065002,149.194458 93.020302,165.323624 
	C92.680206,161.509796 92.107277,157.700104 92.039574,153.881439 
	C91.714752,135.560242 95.871841,118.360771 106.119759,103.037399 
	C109.287468,98.300835 113.175156,93.651382 117.727272,90.320656 
	C126.105270,84.190582 138.067123,87.798561 143.941223,97.632050 
z"/>
<path fill="#828282" opacity="1.000000" stroke="none" 
	d="
M130.037979,156.357697 
	C131.415237,157.062607 133.509018,157.734009 134.387619,159.156158 
	C146.041183,178.019302 155.463409,197.825378 159.004623,219.976517 
	C159.603607,223.723221 161.480545,224.448380 164.967377,223.566315 
	C177.143463,220.486099 189.369629,217.603302 201.583679,214.674393 
	C203.486465,214.218109 205.425400,213.912567 207.383713,213.530258 
	C205.737854,210.737213 204.711929,210.353394 200.167297,211.478928 
	C197.001602,212.262939 194.446930,212.468811 194.835709,207.950836 
	C200.113281,207.444656 204.923981,207.116608 209.730423,206.788849 
	C209.955536,209.281097 210.095596,210.831863 210.397995,214.179764 
	C222.296722,197.133026 238.992355,197.295471 254.471985,198.162781 
	C253.520676,196.804794 252.201035,194.921066 250.881409,193.037354 
	C256.428192,193.107986 259.055206,196.241882 258.557587,202.530838 
	C257.677551,202.610748 256.729370,202.851028 255.815674,202.756805 
	C240.758377,201.204422 226.214554,201.068344 216.010590,215.243881 
	C215.035080,216.599091 212.643158,216.934769 211.521225,217.458069 
	C211.685242,220.488007 212.067978,223.516251 211.972122,226.529266 
	C211.656433,236.450912 212.180862,246.111496 218.617935,254.429077 
	C219.278809,255.283020 219.394562,256.558807 219.586487,257.998596 
	C212.418686,251.744858 209.260101,243.238068 208.112549,234.018356 
	C207.488922,229.008133 208.001328,223.856506 208.001328,218.006958 
	C191.501480,221.877884 174.360886,225.899124 156.590179,230.068192 
	C154.802490,202.690460 144.688217,178.870651 130.037979,156.357697 
z"/>
<path fill="#828282" opacity="1.000000" stroke="none" 
	d="
M228.963104,78.649353 
	C224.960754,77.559921 220.707184,76.403526 216.672455,74.722069 
	C199.937576,67.747917 180.963913,82.601013 176.505951,97.565079 
	C172.470871,111.109665 169.518387,124.712082 168.944473,138.832108 
	C168.903931,139.829391 168.326645,141.464111 167.691452,141.630814 
	C166.610535,141.914520 164.895859,141.663010 164.144547,140.925873 
	C162.649826,139.459335 161.345718,137.642105 160.458145,135.738800 
	C155.156860,124.370850 149.986954,112.941505 144.808594,101.516609 
	C144.408676,100.634247 144.282715,99.627708 144.042068,98.297630 
	C148.377548,105.173744 152.981384,112.282341 156.928741,119.738495 
	C159.765961,125.097733 161.726822,130.920914 164.569916,137.710327 
	C165.853500,121.860001 167.757721,107.512550 172.954559,93.804947 
	C181.216232,72.013390 205.111359,61.275555 225.112350,75.050514 
	C226.461288,75.979553 227.584396,77.236496 228.963104,78.649353 
z"/>
<path fill="#828282" opacity="1.000000" stroke="none" 
	d="
M238.730988,274.938873 
	C240.069977,276.354889 242.937073,278.345612 242.707275,279.869232 
	C241.405884,288.497803 240.244476,297.934723 230.664520,301.516754 
	C226.658493,303.014679 221.173676,302.795959 217.105042,301.314606 
	C212.155151,299.512543 208.021820,295.505859 203.461090,292.567993 
	C202.411957,291.892181 201.060669,291.685455 199.820786,291.253235 
	C197.866974,299.877411 200.039688,304.725830 207.185669,307.546265 
	C227.308670,315.488464 245.757950,326.368134 263.036530,339.291168 
	C263.940338,339.967224 264.199768,341.504822 264.583923,343.010925 
	C258.250427,339.388611 252.330963,334.951569 245.885513,331.495422 
	C231.473007,323.767212 216.916183,316.279449 202.143570,309.272644 
	C198.670441,307.625305 196.975006,306.458984 196.814850,302.416168 
	C196.590332,296.747406 195.369553,291.118134 194.574905,285.471954 
	C194.996109,285.188263 195.417313,284.904572 195.838531,284.620880 
	C198.152206,286.175690 200.419739,287.805176 202.789230,289.269684 
	C207.655319,292.277252 212.418365,295.510406 217.515640,298.069519 
	C223.377899,301.012726 231.439133,298.473206 233.950089,292.507416 
	C236.245926,287.052704 237.253601,281.055847 238.730988,274.938873 
z"/>
<path fill="#828282" opacity="1.000000" stroke="none" 
	d="
M255.199280,172.625214 
	C251.454483,170.952545 252.381424,168.692734 254.929047,166.603592 
	C256.462341,165.346222 258.276062,164.430893 259.963745,163.361832 
	C259.764160,162.981873 259.564606,162.601898 259.365051,162.221924 
	C253.828735,163.678116 248.338562,165.372681 242.730530,166.458359 
	C240.824387,166.827362 237.877487,166.329559 236.723373,165.044678 
	C234.870331,162.981720 232.729492,160.920578 234.227188,156.840485 
	C238.681808,144.704849 242.018921,132.094910 241.850891,119.082375 
	C241.702972,107.626389 240.113693,96.243240 233.265579,86.374382 
	C232.550125,85.343330 232.424850,83.902771 232.033981,82.269257 
	C238.692642,88.447418 241.847046,96.810425 243.949600,105.610710 
	C248.472305,124.540611 244.299988,142.569824 237.913773,160.326813 
	C237.696335,160.931366 237.418518,161.514282 237.204056,162.119751 
	C237.164856,162.230423 237.296478,162.401596 237.557709,163.110611 
	C244.026428,161.417374 250.560989,159.706894 257.797913,157.986847 
	C258.703522,157.971054 258.906830,157.964828 259.110138,157.958603 
	C262.164459,160.105820 265.218781,162.253021 268.815643,164.781647 
	C263.731689,167.601593 259.506104,169.945450 255.199280,172.625214 
z"/>
<path fill="#828282" opacity="1.000000" stroke="none" 
	d="
M92.746056,234.383698 
	C93.550011,234.935272 94.927078,236.043823 94.735870,236.683807 
	C94.369011,237.911652 93.277214,239.115952 92.171936,239.868576 
	C91.300179,240.462189 89.945435,240.314011 88.825592,240.580856 
	C79.214668,242.871063 77.989510,246.184341 84.110016,254.105026 
	C88.357719,251.238037 92.528206,248.144241 96.960754,245.487732 
	C107.177612,239.364563 118.294708,235.817886 130.189835,235.085495 
	C133.064484,234.908493 134.146225,234.227722 133.408905,231.017166 
	C135.419312,232.672653 137.257660,234.705627 139.864975,237.588943 
	C137.559616,238.191818 136.031693,238.860687 134.467957,238.958755 
	C118.515556,239.959106 104.215836,245.333832 91.533882,255.020996 
	C90.357628,255.919464 89.298904,257.042694 88.414322,258.231720 
	C87.571739,259.364288 87.028633,260.719635 85.926750,262.772949 
	C82.625702,256.513580 79.532272,251.006699 76.870743,245.298447 
	C76.338432,244.156769 76.946487,241.437958 77.901237,240.840317 
	C81.026299,238.884232 84.523163,237.499054 87.941010,236.044632 
	C89.416954,235.416550 91.049431,235.156342 92.746056,234.383698 
z"/>
<path fill="#828282" opacity="1.000000" stroke="none" 
	d="
M124.291916,218.096542 
	C123.360352,217.903488 121.997528,217.667236 121.375076,216.860046 
	C111.989586,204.689102 105.791328,191.176849 105.047791,175.621826 
	C104.727791,168.927216 104.482582,162.138824 105.225410,155.507507 
	C106.066589,147.998215 111.649185,143.635071 118.121368,143.979309 
	C121.634651,144.166199 123.745644,145.659363 123.965256,149.721344 
	C117.357231,145.340134 112.286430,148.672272 110.046402,155.491760 
	C105.870430,168.205017 108.932709,180.660309 111.511131,193.201309 
	C113.462769,202.693832 119.746956,209.717590 124.291916,218.096542 
z"/>
<path fill="#828282" opacity="1.000000" stroke="none" 
	d="
M250.284821,249.085999 
	C249.356430,248.901459 247.954697,248.666840 247.374313,247.849197 
	C239.308823,236.486465 241.772629,227.324631 252.815857,218.260590 
	C260.046844,212.325562 269.278748,211.933334 278.322449,211.995071 
	C280.614624,212.010727 283.293732,212.529526 283.035156,208.345062 
	C285.242889,210.558441 287.430939,213.200500 290.414886,216.803650 
	C284.557343,216.473145 280.232697,215.472397 276.204956,216.174606 
	C269.746643,217.300568 262.815735,218.390503 257.279724,221.574005 
	C245.804550,228.172775 243.961182,237.288773 250.284821,249.085999 
z"/>
<path fill="#828282" opacity="1.000000" stroke="none" 
	d="
M42.041748,158.362396 
	C43.161659,158.831253 44.948315,159.313141 45.634815,160.455902 
	C54.402531,175.050903 63.023911,189.733978 71.637047,204.421310 
	C72.201424,205.383713 72.396309,206.562805 72.586258,207.999741 
	C68.206749,202.388779 63.613586,196.651688 59.889278,190.397217 
	C53.698399,180.000443 48.065235,169.271576 42.041748,158.362396 
z"/>
<path fill="#828282" opacity="1.000000" stroke="none" 
	d="
M227.739624,266.884918 
	C231.839584,266.024414 237.156433,269.393097 238.584625,274.008362 
	C234.886841,271.979187 231.363647,269.578796 227.739624,266.884918 
z"/>
<path fill="#828282" opacity="1.000000" stroke="none" 
	d="
M72.706406,208.899658 
	C74.334900,210.609390 76.048981,212.624527 77.586472,214.998871 
	C75.870583,213.307068 74.331291,211.256058 72.706406,208.899658 
z"/>
<path fill="#828282" opacity="1.000000" stroke="none" 
	d="
M264.732849,343.879089 
	C268.382477,342.016754 269.625977,344.024841 269.964813,347.716064 
	C268.248322,346.797485 266.538879,345.481323 264.732849,343.879089 
z"/>
<path fill="#828282" opacity="1.000000" stroke="none" 
	d="
M222.739136,262.884064 
	C225.719559,261.267700 227.409653,262.302063 227.586655,265.996124 
	C225.888031,265.313416 224.363419,264.244293 222.739136,262.884064 
z"/>
<path fill="#828282" opacity="1.000000" stroke="none" 
	d="
M260.944122,259.640900 
	C258.635712,260.035217 256.085938,260.282684 256.034729,256.280670 
	C257.629181,257.035645 259.216827,258.186157 260.944122,259.640900 
z"/>
<path fill="#828282" opacity="1.000000" stroke="none" 
	d="
M278.948792,202.641876 
	C275.903839,203.268250 275.260773,201.175400 275.042664,198.302826 
	C276.307770,199.390366 277.560852,200.864441 278.948792,202.641876 
z"/>
<path fill="#828282" opacity="1.000000" stroke="none" 
	d="
M81.051620,220.358673 
	C84.115547,219.732925 84.741829,221.848221 84.965485,224.725677 
	C83.700859,223.630005 82.443886,222.146301 81.051620,220.358673 
z"/>
<path fill="#828282" opacity="1.000000" stroke="none" 
	d="
M266.948792,187.641876 
	C263.903839,188.268250 263.260773,186.175400 263.042664,183.302826 
	C264.307770,184.390366 265.560852,185.864441 266.948792,187.641876 
z"/>
<path fill="#828282" opacity="1.000000" stroke="none" 
	d="
M270.948792,192.641876 
	C267.903839,193.268250 267.260773,191.175400 267.042664,188.302826 
	C268.307770,189.390366 269.560852,190.864426 270.948792,192.641876 
z"/>
<path fill="#828282" opacity="1.000000" stroke="none" 
	d="
M274.948792,197.641876 
	C271.903839,198.268250 271.260773,196.175400 271.042664,193.302826 
	C272.307770,194.390381 273.560822,195.864441 274.948792,197.641876 
z"/>
<path fill="#828282" opacity="1.000000" stroke="none" 
	d="
M282.948792,207.641876 
	C279.903839,208.268250 279.260773,206.175400 279.042664,203.302826 
	C280.307770,204.390366 281.560852,205.864426 282.948792,207.641876 
z"/>
<path fill="#828282" opacity="1.000000" stroke="none" 
	d="
M77.694824,215.881729 
	C78.733337,216.831192 79.851662,218.073410 80.957626,219.699615 
	C79.888397,218.780563 78.831512,217.477539 77.694824,215.881729 
z"/>
<path fill="#828282" opacity="1.000000" stroke="none" 
	d="
M262.947601,182.640656 
	C261.801880,181.754074 260.520111,180.562958 259.412811,179.003448 
	C260.662018,179.868744 261.736816,181.102417 262.947601,182.640656 
z"/>
<path fill="#828282" opacity="1.000000" stroke="none" 
	d="
M253.970901,253.654175 
	C252.821854,252.763519 251.530029,251.569290 250.412384,250.005127 
	C251.667099,250.873672 252.747620,252.112122 253.970901,253.654175 
z"/>
<path fill="#828282" opacity="1.000000" stroke="none" 
	d="
M259.304840,178.117981 
	C258.265381,177.160233 257.145844,175.908783 256.034210,174.271790 
	C257.102997,175.198929 258.163879,176.511597 259.304840,178.117981 
z"/>
<path fill="#828282" opacity="1.000000" stroke="none" 
	d="
M127.301895,222.114166 
	C126.333809,221.395370 125.285034,220.383041 124.412231,219.005875 
	C125.465874,219.700897 126.343544,220.760757 127.301895,222.114166 
z"/>
<path fill="#828282" opacity="1.000000" stroke="none" 
	d="
M130.301910,226.114151 
	C129.333832,225.395355 128.285049,224.383041 127.412239,223.005890 
	C128.465881,223.700912 129.343552,224.760773 130.301910,226.114151 
z"/>
<path fill="#828282" opacity="1.000000" stroke="none" 
	d="
M133.301910,230.114151 
	C132.333801,229.395370 131.285019,228.383057 130.412231,227.005890 
	C131.465897,227.700897 132.343552,228.760773 133.301910,230.114151 
z"/>
<path fill="#828282" opacity="1.000000" stroke="none" 
	d="
M219.698090,258.885895 
	C220.666168,259.604675 221.714966,260.616974 222.587769,261.994141 
	C221.534149,261.299133 220.656479,260.239258 219.698090,258.885895 
z"/>
<path fill="#828282" opacity="1.000000" stroke="none" 
	d="
M259.010132,157.722733 
	C258.906830,157.964828 258.703522,157.971054 258.195007,157.967987 
	C258.229889,157.801422 258.569977,157.644150 259.010132,157.722733 
z"/>
<path fill="#FFFFFF" opacity="1.000000" stroke="none" 
	d="
M250.582672,192.899078 
	C252.201035,194.921066 253.520676,196.804794 254.471985,198.162781 
	C238.992355,197.295471 222.296722,197.133026 210.397995,214.179764 
	C210.095596,210.831863 209.955536,209.281097 209.730423,206.788849 
	C204.923981,207.116608 200.113281,207.444656 194.979675,207.559113 
	C194.656738,207.345535 194.515732,207.354218 194.362457,207.074371 
	C193.845093,206.070526 193.589035,205.262543 193.101059,204.634857 
	C182.071045,190.446701 177.557785,174.208435 178.024704,156.447708 
	C178.210983,149.361191 178.023560,142.171936 179.198822,135.231384 
	C180.297638,128.742218 182.589859,122.363647 185.084229,116.232323 
	C186.952820,111.639267 190.717407,110.851540 194.957764,113.113678 
	C195.426208,113.686783 195.894653,114.259880 196.781418,115.259384 
	C198.494049,118.495590 200.081848,121.209641 201.035049,124.130768 
	C207.186188,142.981628 209.594345,162.433014 209.988876,182.180817 
	C210.066193,186.050934 210.000000,189.923950 210.000000,194.126434 
	C219.855789,189.188232 228.908005,184.652664 237.960220,180.117096 
	C242.068130,184.331665 246.176025,188.546234 250.582672,192.899078 
z"/>
<path fill="#828282" opacity="1.000000" stroke="none" 
	d="
M194.964294,112.710144 
	C190.717407,110.851540 186.952820,111.639267 185.084229,116.232323 
	C182.589859,122.363647 180.297638,128.742218 179.198822,135.231384 
	C178.023560,142.171936 178.210983,149.361191 178.024704,156.447708 
	C177.557785,174.208435 182.071045,190.446701 193.101059,204.634857 
	C193.589035,205.262543 193.845093,206.070526 194.295685,207.097443 
	C193.255371,206.767349 191.689392,206.418030 191.069168,205.457840 
	C184.315948,195.002792 176.849579,184.625763 175.645233,171.876999 
	C174.577103,160.570206 174.996536,149.116745 174.893127,137.726837 
	C174.810181,128.591110 176.923889,120.047836 181.849442,112.199394 
	C184.161240,108.515770 187.456940,107.384537 191.204300,108.190544 
	C192.686340,108.509323 193.728409,110.873657 194.964294,112.710144 
z"/>
<path fill="#828282" opacity="1.000000" stroke="none" 
	d="
M237.961060,179.713623 
	C228.908005,184.652664 219.855789,189.188232 210.000000,194.126434 
	C210.000000,189.923950 210.066193,186.050934 209.988876,182.180817 
	C209.594345,162.433014 207.186188,142.981628 201.035049,124.130768 
	C200.081848,121.209641 198.494049,118.495590 197.043121,115.364090 
	C198.304840,116.134140 200.214752,116.934341 201.062851,118.364304 
	C207.190918,128.696655 209.127411,140.368469 210.904297,151.960709 
	C212.597992,163.010193 213.501709,174.180786 214.835541,186.034195 
	C220.269272,183.334808 225.627014,180.487000 231.153625,178.017044 
	C233.444351,176.993271 236.436829,175.073227 237.961060,179.713623 
z"/>
</svg>