<svg version="1.1" id="Layer_1" xmlns="http://www.w3.org/2000/svg" xmlns:xlink="http://www.w3.org/1999/xlink" x="0px" y="0px"
	 width="100%" viewBox="0 0 400 400" enable-background="new 0 0 400 400" xml:space="preserve">
<path fill="#FFFFFF" opacity="1.000000" stroke="none" 
	d="
M271.000000,401.000000 
	C180.694733,401.000000 90.889473,401.000000 1.042102,401.000000 
	C1.042102,267.736420 1.042102,134.472794 1.042102,1.104592 
	C134.221878,1.104592 267.443848,1.104592 400.832916,1.104592 
	C400.832916,134.333160 400.832916,267.666565 400.832916,401.000000 
	C357.806183,401.000000 314.653107,401.000000 271.000000,401.000000 
M365.008026,243.981827 
	C365.008026,243.981827 365.086914,243.943268 364.820892,243.344650 
	C363.894226,242.857773 362.967560,242.370911 361.784576,241.301010 
	C360.561096,240.519852 359.337616,239.738708 357.837921,238.360931 
	C356.909485,237.875946 355.981079,237.390976 355.007874,236.981552 
	C355.007874,236.981552 355.086914,236.943268 354.820892,236.344666 
	C353.894226,235.857788 352.967560,235.370926 351.784576,234.300995 
	C350.561096,233.519852 349.337616,232.738708 347.836487,231.359253 
	C346.904633,230.867508 345.972748,230.375778 344.784576,229.301010 
	C343.561096,228.519867 342.337616,227.738708 340.837921,226.360947 
	C339.909485,225.875961 338.981079,225.390991 338.007874,224.981552 
	C338.007874,224.981552 338.086914,224.943268 337.820892,224.344650 
	C336.894226,223.857773 335.967560,223.370911 334.784576,222.300995 
	C333.561096,221.519852 332.337616,220.738708 330.836487,219.359238 
	C329.904633,218.867508 328.972748,218.375778 327.752991,217.267639 
	C324.206635,214.830872 320.660248,212.394104 316.848877,209.375061 
	C316.037476,209.004318 315.226044,208.633575 314.414612,208.262848 
	C314.339050,208.871964 314.263458,209.481079 314.078949,210.593750 
	C314.097839,210.935944 314.116730,211.278122 313.573334,212.020889 
	C312.771088,215.346970 311.968842,218.673065 311.033203,222.732086 
	C312.395172,224.677887 313.379730,227.137314 315.192657,228.469360 
	C319.895874,231.925095 324.963593,234.884750 330.276459,238.790710 
	C330.573181,243.193512 330.869873,247.596298 331.027344,252.647369 
	C330.977844,253.086182 330.928375,253.524994 330.252258,254.357651 
	C328.889709,261.149139 325.371979,266.796112 320.990417,271.990692 
	C320.990417,271.990692 320.943237,271.913269 320.299866,272.207520 
	C315.534027,274.193878 310.768188,276.180237 305.257233,278.031799 
	C304.504211,278.076721 303.751190,278.121674 302.185242,278.026886 
	C299.818359,277.536896 297.344574,277.335175 295.104218,276.504120 
	C287.708374,273.760681 280.396912,270.789734 273.007355,267.981415 
	C273.007355,267.981415 273.086700,267.943268 272.799622,267.320984 
	C270.880188,266.175476 268.960724,265.029968 266.710938,263.290283 
	C259.122162,258.531189 252.534058,252.739304 247.945374,244.238846 
	C247.567352,241.127686 247.189331,238.016525 246.920135,234.407425 
	C246.899902,234.069031 246.879654,233.730637 247.377579,233.025879 
	C248.623138,230.698029 249.868683,228.370178 251.672607,225.810089 
	C252.462540,224.911438 253.252472,224.012802 254.628769,222.851410 
	C255.552200,222.131180 256.475647,221.410950 257.563721,220.576172 
	C257.563721,220.576172 257.701996,220.430923 258.210144,220.220352 
	C258.823090,219.849243 259.436005,219.478134 260.847809,219.015930 
	C269.479248,216.076965 278.349121,215.492050 287.679901,216.825760 
	C288.064423,216.552124 288.448944,216.278488 288.948883,215.303757 
	C283.355865,208.092178 277.824524,200.831665 272.151855,193.683304 
	C266.884918,187.046295 261.467163,180.528976 256.021851,173.232391 
	C256.053253,172.501892 256.084656,171.771378 256.718079,170.699402 
	C258.268524,169.434692 259.654633,167.805832 261.416870,167.010483 
	C263.087036,166.256744 265.151520,166.376678 267.525696,165.906250 
	C267.349274,165.560089 267.172821,165.213943 266.711029,164.255600 
	C264.489288,162.466873 262.267517,160.678162 259.765350,158.281204 
	C259.078033,158.099487 258.313019,157.623459 257.715271,157.781204 
	C251.128860,159.519531 244.568451,161.356415 237.276596,163.005020 
	C237.195999,161.377609 237.115387,159.750183 237.768005,157.993683 
	C238.789810,155.662277 239.811615,153.330872 240.972610,150.351822 
	C241.021988,149.913406 241.071365,149.474991 241.698364,148.717896 
	C242.069611,147.117096 242.440872,145.516296 242.921387,143.409286 
	C242.902817,143.065292 242.884247,142.721283 243.385284,142.017441 
	C243.534668,141.022263 243.684067,140.027084 243.969513,138.290451 
	C244.019989,137.539108 244.070465,136.787766 244.711716,135.699387 
	C244.752289,134.810211 244.792877,133.921036 244.969055,132.207382 
	C245.019684,130.817062 245.070297,129.426758 245.711731,127.699394 
	C245.752304,126.810211 245.792877,125.921028 245.968674,124.149590 
	C245.256927,118.432343 244.545181,112.715103 243.965973,106.204353 
	C242.679688,102.453278 241.393417,98.702194 240.005447,94.293655 
	C239.614792,93.522202 239.224136,92.750748 238.871048,91.482864 
	C238.684982,91.118393 238.402298,91.012947 237.416046,90.839676 
	C236.291275,88.930122 235.166489,87.020561 234.525146,84.914177 
	C234.363983,84.572433 234.202820,84.230690 233.771088,83.285469 
	C231.552109,81.176170 229.333130,79.066872 226.807373,76.326233 
	C221.885147,74.178741 216.962921,72.031258 211.548248,69.203300 
	C208.365234,69.191071 205.182205,69.178833 201.228165,69.055855 
	C197.693314,70.482300 194.158478,71.908745 190.446289,73.436134 
	C190.446289,73.436134 190.302246,73.580681 189.725235,73.817032 
	C187.445404,75.530586 185.165558,77.244141 182.282974,79.230537 
	C181.148849,80.807755 180.014740,82.384964 178.258835,84.255043 
	C173.097000,90.984428 170.686523,98.813713 169.060669,107.512955 
	C169.095978,107.684265 169.131287,107.855583 168.832718,108.664604 
	C168.610672,109.776100 168.388626,110.887596 168.027374,112.647285 
	C167.977936,113.086052 167.928513,113.524818 167.284744,114.306221 
	C167.245361,115.203835 167.205978,116.101448 167.030472,117.732681 
	C166.980011,118.476318 166.929550,119.219948 166.284744,120.306221 
	C166.245361,121.203835 166.205978,122.101448 166.030914,123.784004 
	C165.980301,124.843864 165.929688,125.903725 165.284729,127.306213 
	C165.245346,128.203827 165.205963,129.101425 165.030823,130.859055 
	C164.987061,132.887680 164.943283,134.916321 164.226242,136.692169 
	C162.186523,132.111816 160.146820,127.531464 158.005753,122.297150 
	C157.614975,121.531189 157.224182,120.765228 156.954300,119.330299 
	C156.338577,118.203896 155.722855,117.077492 154.999786,115.226990 
	C150.371246,108.137184 145.742691,101.047379 140.807892,93.326836 
	C137.218887,91.512543 133.629883,89.698250 129.649933,87.259148 
	C128.433044,87.228294 127.216171,87.197449 125.251953,87.051598 
	C121.796532,89.020294 118.341118,90.988991 114.282112,93.231178 
	C112.481651,95.474808 110.681190,97.718445 108.287537,100.228432 
	C107.647987,101.048737 107.008438,101.869041 106.116226,103.120277 
	C106.116226,103.120277 106.135597,103.619453 105.613075,103.982155 
	C99.878754,112.897560 95.555405,122.369553 94.027374,133.647324 
	C93.977951,134.086075 93.928528,134.524826 93.284782,135.306213 
	C93.245384,136.203827 93.205994,137.101425 93.030891,138.818253 
	C92.980293,140.200027 92.929695,141.581802 92.284775,143.306213 
	C92.245384,144.203827 92.205994,145.101425 92.030258,146.917694 
	C92.409035,151.612366 92.787819,156.307022 93.036125,161.662842 
	C93.079613,162.107864 93.123100,162.552872 93.032402,163.717896 
	C92.959373,164.666275 92.886345,165.614670 92.813324,166.563049 
	C88.820625,161.127869 84.672165,155.890915 83.946098,148.235184 
	C81.954819,141.997360 80.002983,135.746292 77.916443,129.540497 
	C77.686264,128.855881 76.685196,128.430450 76.007668,127.134979 
	C75.616249,124.090202 75.224831,121.045425 74.968307,117.196686 
	C74.859558,115.833099 74.750809,114.469505 74.592506,112.484627 
	C67.624260,116.580383 61.329639,120.318810 54.998123,123.993660 
	C41.871902,131.612167 28.705484,139.162155 15.650649,146.900681 
	C15.014869,147.277542 15.286889,149.185852 15.138587,151.156235 
	C15.475960,151.903137 15.790092,152.661591 16.154318,153.395157 
	C19.584259,160.303238 23.494034,160.889801 29.289824,155.405319 
	C29.725090,154.993423 30.322243,154.575394 30.887157,154.504883 
	C37.101761,153.729309 40.936924,155.940567 43.963787,161.770599 
	C47.880886,169.315338 51.618763,176.970139 55.899971,184.305450 
	C66.485275,202.442032 79.343460,218.950455 92.165016,235.013138 
	C90.784508,235.344513 89.288483,235.440842 88.045372,236.051788 
	C84.447044,237.820236 80.950386,239.795578 76.708595,242.193237 
	C78.861237,247.128510 81.013878,252.063797 83.255287,257.693420 
	C84.093788,259.150970 84.932289,260.608521 86.035400,262.526062 
	C87.270004,260.327118 88.192139,258.684723 89.641075,256.838867 
	C90.108192,256.263977 90.575317,255.689072 91.641800,254.842392 
	C92.790184,253.913788 93.938560,252.985199 95.009773,252.009262 
	C95.009773,252.009262 95.056702,252.086685 95.682411,251.805695 
	C97.251656,250.764755 98.820900,249.723801 100.558723,248.570724 
	C100.558723,248.570724 100.696854,248.422714 101.253906,248.194412 
	C102.519081,247.498444 103.784256,246.802475 105.818962,246.016647 
	C109.567314,244.674316 113.229256,242.954544 117.082932,242.072281 
	C124.008507,240.486740 131.049164,239.403885 138.525162,237.914154 
	C138.363983,237.572403 138.202820,237.230667 137.763138,236.277176 
	C132.114502,228.680908 126.426125,221.113815 120.828148,213.480392 
	C114.935509,205.445190 109.592621,197.202164 109.803223,186.593460 
	C109.858498,183.809158 108.857399,181.019745 108.689041,178.211838 
	C108.342163,172.426483 108.229652,166.627090 108.517136,160.871048 
	C108.881607,160.684982 108.987053,160.402298 108.953865,159.338760 
	C108.646889,158.267426 108.339912,157.196075 108.730759,155.999908 
	C109.858582,154.347397 110.986412,152.694870 112.759468,150.729507 
	C116.774254,146.973190 120.081978,147.071030 124.242538,150.710052 
	C133.099838,158.457047 137.571609,169.096024 143.041580,179.605026 
	C143.325104,180.086090 143.608612,180.567154 143.998474,181.758759 
	C145.054504,183.839798 146.110535,185.920822 147.048523,188.708130 
	C147.662979,190.154739 148.277435,191.601349 148.994080,193.702194 
	C149.384903,194.468750 149.775742,195.235321 150.055222,196.775284 
	C151.759003,203.182800 153.462784,209.590332 155.033218,216.758224 
	C155.432816,218.654251 156.368286,220.619415 156.134232,222.433685 
	C155.347351,228.532715 156.870453,230.009476 162.920670,228.558899 
	C177.941849,224.957504 192.974792,221.405304 208.523392,218.071747 
	C208.737808,218.380081 208.952225,218.688416 209.027374,219.645737 
	C208.977936,220.085022 208.928497,220.524307 208.284729,221.306229 
	C208.245346,222.203827 208.205978,223.101440 208.030365,224.913757 
	C208.409103,229.276550 208.787857,233.639328 209.033890,238.773224 
	C209.986557,241.531464 210.939209,244.289719 211.999405,247.765457 
	C216.045059,254.767441 219.959625,261.811310 226.939941,266.554077 
	C231.192139,269.443237 235.102631,272.835297 239.028351,276.771423 
	C238.741104,278.514008 238.453842,280.256561 238.027344,282.647461 
	C237.977753,283.086304 237.928177,283.525177 237.250900,284.362579 
	C235.368256,288.342712 233.485611,292.322815 231.434555,296.424011 
	C231.434555,296.424011 231.301422,296.583008 230.709457,296.825226 
	C228.807220,297.605682 226.904984,298.386139 224.208527,299.031006 
	C223.138321,299.076202 222.068115,299.121399 220.243271,299.028992 
	C216.846512,297.654694 213.449753,296.280426 210.007645,294.981659 
	C210.007645,294.981659 210.086899,294.943268 209.820923,294.344635 
	C208.894272,293.857788 207.967621,293.370911 206.752853,292.267487 
	C203.380844,290.068420 200.008850,287.869324 196.320175,285.174255 
	C195.935638,285.447906 195.551086,285.721558 195.031555,286.834106 
	C195.409897,289.223328 195.788239,291.612518 196.036133,294.662872 
	C196.079620,295.107910 196.123108,295.552917 196.031631,296.784760 
	C196.409958,298.523712 196.788269,300.262695 197.034103,302.538757 
	C197.086761,303.083069 197.139435,303.627411 197.111862,304.904999 
	C197.881622,305.712219 198.651398,306.519440 199.612778,307.967834 
	C200.407806,308.256348 201.202835,308.544891 202.613831,309.131958 
	C203.844315,309.562347 205.074799,309.992737 206.627640,311.009033 
	C207.417603,311.283813 208.207565,311.558594 209.640411,312.152710 
	C212.195374,313.242828 214.750320,314.332977 217.627640,316.009033 
	C218.417603,316.283813 219.207565,316.558624 220.643448,317.154816 
	C240.446808,327.396729 259.896820,338.171631 275.759613,354.257019 
	C279.945068,358.501190 284.506500,360.094452 290.697693,356.741516 
	C293.467194,355.277130 296.236694,353.812714 299.617676,352.024963 
	C296.692078,350.426392 294.367218,349.156097 291.716705,347.294464 
	C285.660706,343.679352 281.994781,338.051208 278.950775,331.318817 
	C278.439941,330.647583 277.929138,329.976318 277.802399,328.760559 
	C277.479401,326.839630 277.156403,324.918732 276.989258,322.260132 
	C277.270630,320.839905 277.552002,319.419708 277.969543,317.268463 
	C278.017059,316.527100 278.064606,315.785706 278.737213,314.656677 
	C280.196198,311.118561 281.655212,307.580475 283.848358,304.010315 
	C285.667328,304.481232 287.486298,304.952118 289.627655,306.008942 
	C290.417633,306.283752 291.207581,306.558563 292.615082,307.132874 
	C293.848755,307.550079 295.082428,307.967255 296.676147,309.035553 
	C299.450012,309.968170 302.223846,310.900787 305.741882,312.203857 
	C313.766296,314.776642 321.856812,314.801483 330.687744,312.748108 
	C333.163269,311.179504 335.638763,309.610931 338.731659,307.754486 
	C340.525024,305.184540 342.318390,302.614624 344.722656,299.691162 
	C345.744385,296.522736 346.766113,293.354309 347.913818,289.788849 
	C347.913818,289.788849 347.866730,289.374969 348.390564,289.012634 
	C348.538177,288.008240 348.685791,287.003815 348.969482,285.268494 
	C349.016998,284.527161 349.064484,283.785828 349.708893,282.700958 
	C349.750397,281.800446 349.791870,280.899963 349.970032,279.073273 
	C349.248779,270.001617 348.527527,260.929932 348.056305,251.430191 
	C348.690643,251.325516 349.324982,251.220856 350.300049,251.717148 
	C353.165039,253.161697 356.029999,254.606247 359.329834,256.789307 
	C361.809814,258.944061 363.642090,257.622437 365.535309,255.571167 
	C365.535309,255.571167 365.681610,255.430634 366.227936,255.210236 
	C367.180878,254.492371 368.133850,253.774490 369.009247,253.009491 
	C369.009247,253.009491 369.056885,253.086731 369.676117,252.810806 
	C371.090576,251.467850 375.459045,250.996277 370.818848,247.390457 
	C369.745758,246.829041 368.672638,246.267624 367.410950,245.057571 
	C366.624817,244.673752 365.838684,244.289948 365.008026,243.981827 
z"/>
<path fill="#FE644C" opacity="1.000000" stroke="none" 
	d="
M287.363159,216.329819 
	C278.349121,215.492050 269.479248,216.076965 260.238098,218.780579 
	C258.986237,219.173782 258.344116,219.802353 257.701996,220.430923 
	C257.701996,220.430923 257.563721,220.576172 257.108459,220.416412 
	C255.782944,221.209152 254.912674,222.161652 254.042419,223.114166 
	C253.252472,224.012802 252.462540,224.911438 250.990921,225.914490 
	C245.066132,226.919113 243.833206,229.554260 246.859421,233.392242 
	C246.879654,233.730637 246.899902,234.069031 246.456406,234.684280 
	C242.781647,238.312317 243.610092,242.830124 247.833420,244.999420 
	C252.534058,252.739304 259.122162,258.531189 266.898804,263.952637 
	C269.086670,265.724396 271.086700,266.833832 273.086700,267.943268 
	C273.086700,267.943268 273.007355,267.981415 273.059082,268.294128 
	C281.173218,276.372986 291.593414,278.040283 302.000092,279.686462 
	C302.246490,279.725433 302.661713,278.697113 302.998169,278.166595 
	C303.751190,278.121674 304.504211,278.076721 305.709137,278.449829 
	C310.158447,278.187256 314.268921,277.859131 318.091248,276.632843 
	C319.410797,276.209503 320.013214,273.550842 320.943237,271.913269 
	C320.943237,271.913269 320.990417,271.990692 321.343994,271.983765 
	C322.804535,271.740692 324.579742,271.852844 324.912964,271.213470 
	C327.637451,265.985657 330.108612,260.624725 332.548187,255.254959 
	C332.615051,255.107742 331.462677,254.406631 330.878876,253.963806 
	C330.928375,253.524994 330.977844,253.086182 331.445312,252.273224 
	C333.175354,250.418289 333.903900,239.786285 332.598297,238.727875 
	C331.940918,238.194977 330.805237,238.252075 329.885834,238.042389 
	C324.963593,234.884750 319.895874,231.925095 315.192657,228.469360 
	C313.379730,227.137314 312.395172,224.677887 311.421814,222.325073 
	C313.085663,219.032928 314.417084,216.169495 315.552856,213.230438 
	C315.671936,212.922318 314.635773,212.167755 314.135620,211.620316 
	C314.116730,211.278122 314.097839,210.935944 314.622681,210.327591 
	C315.815582,210.026733 316.464752,209.992035 317.113892,209.957336 
	C320.660248,212.394104 324.206635,214.830872 327.935669,217.938110 
	C329.116943,219.058258 330.115540,219.507919 331.114136,219.957565 
	C332.337616,220.738708 333.561096,221.519852 334.950195,222.952759 
	C336.106171,224.050766 337.096527,224.497025 338.086914,224.943268 
	C338.086914,224.943268 338.007874,224.981552 338.066101,225.305038 
	C339.120941,226.071533 340.117554,226.514542 341.114136,226.957550 
	C342.337616,227.738708 343.561096,228.519867 344.951477,229.954803 
	C346.116943,231.058258 347.115540,231.507919 348.114136,231.957565 
	C349.337616,232.738708 350.561096,233.519852 351.950195,234.952759 
	C353.106171,236.050766 354.096527,236.497009 355.086914,236.943268 
	C355.086914,236.943268 355.007874,236.981552 355.066101,237.305023 
	C356.120941,238.071518 357.117554,238.514526 358.114136,238.957550 
	C359.337616,239.738708 360.561096,240.519852 361.950195,241.952759 
	C363.106171,243.050766 364.096527,243.497009 365.086914,243.943268 
	C365.086914,243.943268 365.008026,243.981827 365.073975,244.319595 
	C365.959808,245.006973 366.779694,245.356583 367.599548,245.706207 
	C368.672638,246.267624 369.745758,246.829041 370.631989,247.840454 
	C369.982361,249.889191 369.519623,251.487961 369.056885,253.086731 
	C369.056885,253.086731 369.009247,253.009491 368.644867,253.016647 
	C367.414185,253.826065 366.547882,254.628342 365.681610,255.430634 
	C365.681610,255.430634 365.535309,255.571167 365.053528,255.401093 
	C362.679504,255.504272 360.787231,255.777557 358.894989,256.050812 
	C356.029999,254.606247 353.165039,253.161697 350.086487,251.056259 
	C348.441010,250.377396 347.009094,250.359421 345.577179,250.341431 
	C346.320221,250.847061 347.063232,251.352661 347.806274,251.858276 
	C348.527527,260.929932 349.248779,270.001617 349.556396,279.537506 
	C348.209961,280.237152 347.277100,280.472595 345.574158,280.902374 
	C347.266571,281.927124 348.189270,282.485809 349.111969,283.044495 
	C349.064484,283.785828 349.016998,284.527161 348.531921,285.635315 
	C347.213806,286.268433 346.333313,286.534760 345.452789,286.801056 
	C346.257446,287.659027 347.062073,288.516998 347.866730,289.374969 
	C347.866730,289.374969 347.913818,289.788849 347.449066,289.940918 
	C346.322876,290.728668 345.661438,291.364349 344.754333,292.166870 
	C344.339111,292.889130 344.169556,293.444580 343.725403,294.200409 
	C342.096436,296.466522 340.982269,298.504089 344.111755,300.044708 
	C342.318390,302.614624 340.525024,305.184540 337.983093,307.885864 
	C333.851135,308.163086 329.417023,306.730438 329.999084,312.833496 
	C321.856812,314.801483 313.766296,314.776642 305.294891,311.672241 
	C302.003967,310.221924 299.160034,309.303162 296.316101,308.384430 
	C295.082428,307.967255 293.848755,307.550079 292.218079,306.627991 
	C290.982483,305.889771 290.143890,305.656403 289.305267,305.423035 
	C287.486298,304.952118 285.667328,304.481232 283.076538,304.014771 
	C277.490173,303.027496 278.257782,307.865326 276.420013,309.895691 
	C274.646576,311.855011 274.943665,314.177094 278.112122,315.044342 
	C278.064606,315.785706 278.017059,316.527100 277.531494,317.647125 
	C273.719055,319.511200 273.933502,321.184296 276.833405,322.997803 
	C277.156403,324.918732 277.479401,326.839630 277.494507,329.392822 
	C277.735565,330.682739 278.284485,331.340424 278.833405,331.998108 
	C281.994781,338.051208 285.660706,343.679352 291.866699,347.991913 
	C291.344177,351.404083 290.671631,354.118774 289.999084,356.833496 
	C284.506500,360.094452 279.945068,358.501190 275.759613,354.257019 
	C259.896820,338.171631 240.446808,327.396729 220.232269,316.638947 
	C218.982498,315.889740 218.143890,315.656433 217.305283,315.423096 
	C214.750320,314.332977 212.195374,313.242828 209.230759,311.637878 
	C207.982498,310.889771 207.143890,310.656433 206.305283,310.423096 
	C205.074799,309.992737 203.844315,309.562347 202.229080,308.634766 
	C201.036606,307.867279 200.228882,307.596954 199.421158,307.326660 
	C198.651398,306.519440 197.881622,305.712219 197.480118,304.455994 
	C197.621109,303.338531 197.393845,302.670074 197.166595,302.001648 
	C196.788269,300.262695 196.409958,298.523712 196.379211,296.347504 
	C197.020264,295.592468 197.313736,295.274689 197.607208,294.956909 
	C197.126999,294.638519 196.646790,294.320129 196.166595,294.001740 
	C195.788239,291.612518 195.409897,289.223328 195.472107,286.358215 
	C196.154053,285.811615 196.395447,285.740936 196.636841,285.670258 
	C200.008850,287.869324 203.380844,290.068420 206.934326,292.935974 
	C208.106171,294.050751 209.096542,294.497009 210.086899,294.943268 
	C210.086899,294.943268 210.007645,294.981659 210.059570,295.295349 
	C212.466217,297.258575 214.699677,299.151581 217.244675,300.419067 
	C218.080521,300.835358 219.723831,299.630249 220.997910,299.166595 
	C222.068115,299.121399 223.138321,299.076202 224.690765,299.453064 
	C229.806686,301.871246 231.614838,300.899933 231.301422,296.583008 
	C231.301422,296.583008 231.434555,296.424011 231.883835,296.583984 
	C237.680054,296.375946 237.615768,291.767120 238.429703,288.282227 
	C238.648026,287.347443 242.160965,284.707642 237.878601,283.964020 
	C237.928177,283.525177 237.977753,283.086304 238.416382,282.283508 
	C241.874954,280.126831 241.384216,278.116852 239.166595,276.001465 
	C235.102631,272.835297 231.192139,269.443237 226.939941,266.554077 
	C219.959625,261.811310 216.045059,254.767441 212.215698,247.199768 
	C211.343536,243.756760 210.255051,240.879440 209.166595,238.002121 
	C208.787857,233.639328 208.409103,229.276550 208.420898,224.414886 
	C209.416031,223.310898 210.020645,222.705795 210.625244,222.100677 
	C210.043182,221.721649 209.461121,221.342621 208.879059,220.963593 
	C208.928497,220.524307 208.977936,220.085022 209.426971,219.258026 
	C210.217712,217.913559 210.608856,216.956787 211.361176,215.993988 
	C215.609024,214.124390 216.186340,212.779648 213.934662,210.645508 
	C214.621689,209.537872 215.253723,208.747742 216.299103,207.969849 
	C217.373093,207.979355 218.115082,208.175293 218.681885,207.943268 
	C224.790482,205.442612 230.888123,202.912445 236.932281,200.261566 
	C237.487411,200.018066 237.652832,198.886017 238.461487,198.098297 
	C243.933212,197.983902 248.942657,197.937790 254.003128,198.261139 
	C255.241501,199.160629 256.428864,199.690659 257.616241,200.220688 
	C257.261444,198.927002 257.252136,197.324692 256.451904,196.428894 
	C255.694366,195.580887 254.107010,195.474182 252.583313,194.905060 
	C247.203491,189.882385 242.124969,184.996109 236.838470,179.809738 
	C234.333008,179.378418 231.761658,178.527237 229.798080,179.274033 
	C226.299957,180.604446 223.369034,183.643692 219.831589,184.594940 
	C215.922058,185.646225 215.851959,187.892181 215.629166,190.900879 
	C213.832687,191.256683 212.406158,191.545074 210.887512,191.658676 
	C210.632568,191.265961 210.422928,191.111511 210.098236,190.555695 
	C210.288849,184.203400 210.988937,178.291931 210.669952,172.435989 
	C210.404938,167.570786 208.841309,162.787537 208.033401,157.937912 
	C206.984268,151.640289 206.113907,145.312866 205.495300,138.929321 
	C206.161392,133.019180 205.133026,127.579086 201.007355,122.681122 
	C199.814713,120.373009 198.925293,118.293228 197.720718,116.415634 
	C194.157532,110.861671 189.917175,110.044067 185.683640,114.029892 
	C182.634216,113.936127 179.818634,113.516777 179.142914,117.159843 
	C178.729996,119.386101 178.142212,121.632538 178.165955,123.864243 
	C178.177277,124.928085 179.431137,125.978706 180.071991,127.408508 
	C179.959030,128.530350 179.896225,129.278992 179.557068,130.166443 
	C178.680573,130.957184 178.080460,131.609116 177.480347,132.261063 
	C178.027603,132.519165 178.574844,132.777267 179.072296,133.461487 
	C178.959473,135.600967 178.896469,137.314301 178.557083,139.166443 
	C177.680588,139.957184 177.080460,140.609131 176.480347,141.261063 
	C177.027603,141.519165 177.574844,141.777267 178.071930,142.499176 
	C178.610641,154.703964 179.199509,166.444977 179.404144,178.140717 
	C176.375595,180.931503 178.194443,182.117050 180.994446,183.321991 
	C185.784012,191.724503 190.412521,199.804306 195.072495,208.227997 
	C197.521667,211.205978 198.385574,209.533096 199.449341,207.098572 
	C202.934296,207.075882 205.969131,207.121201 209.061890,207.539856 
	C209.192093,208.154419 209.264389,208.395660 209.555603,208.875900 
	C209.863007,210.370895 209.951538,211.626923 210.049774,213.213867 
	C210.372986,214.363205 210.686493,215.181610 210.657593,216.003601 
	C209.544464,216.615921 208.773743,217.224640 208.003021,217.833374 
	C192.974792,221.405304 177.941849,224.957504 162.920670,228.558899 
	C156.870453,230.009476 155.347351,228.532715 156.134232,222.433685 
	C156.368286,220.619415 155.432816,218.654251 155.428772,216.309280 
	C154.683670,210.172180 153.623306,204.465668 152.330109,198.812393 
	C152.090607,197.765366 150.911850,196.933212 150.166580,196.001877 
	C149.775742,195.235321 149.384903,194.468750 149.205444,193.183380 
	C148.666733,191.110321 147.916656,189.556091 147.166580,188.001846 
	C146.110535,185.920822 145.054504,183.839798 144.185150,181.250534 
	C143.970078,180.162018 143.568329,179.581726 143.166595,179.001434 
	C137.571609,169.096024 133.099838,158.457047 124.242538,150.710052 
	C120.081978,147.071030 116.774254,146.973190 112.054825,150.881317 
	C110.244438,152.730331 109.138687,154.427536 108.032936,156.124741 
	C108.339912,157.196075 108.646889,158.267426 108.718819,159.772247 
	C108.265968,160.368179 108.111610,160.577408 108.020706,160.833466 
	C108.229652,166.627090 108.342163,172.426483 108.689041,178.211838 
	C108.857399,181.019745 109.858498,183.809158 109.803223,186.593460 
	C109.592621,197.202164 114.935509,205.445190 120.828148,213.480392 
	C126.426125,221.113815 132.114502,228.680908 137.892303,236.888702 
	C138.028229,237.703812 138.034973,237.907394 138.041733,238.110992 
	C131.049164,239.403885 124.008507,240.486740 117.082932,242.072281 
	C113.229256,242.954544 109.567314,244.674316 105.208542,245.772202 
	C102.079140,244.850586 99.825043,244.530396 100.696854,248.422714 
	C100.696854,248.422714 100.558723,248.570724 100.084511,248.406342 
	C96.453453,247.582367 94.799637,248.702927 95.056702,252.086685 
	C95.056702,252.086685 95.009773,252.009262 94.646622,252.016602 
	C93.203125,253.054016 92.122772,254.084076 91.042427,255.114166 
	C90.575317,255.689072 90.108192,256.263977 88.951645,256.928101 
	C86.563644,257.011292 84.865074,257.005188 83.166519,256.999084 
	C81.013878,252.063797 78.861237,247.128510 77.505615,242.056732 
	C83.272766,240.487701 88.251740,239.082886 93.178551,237.514236 
	C93.362267,237.455734 93.038345,235.802811 92.950996,234.892914 
	C79.343460,218.950455 66.485275,202.442032 55.899971,184.305450 
	C51.618763,176.970139 47.880886,169.315338 43.963787,161.770599 
	C40.936924,155.940567 37.101761,153.729309 30.887157,154.504883 
	C30.322243,154.575394 29.725090,154.993423 29.289824,155.405319 
	C23.494034,160.889801 19.584259,160.303238 16.154318,153.395157 
	C15.790092,152.661591 15.475960,151.903137 15.529142,150.622101 
	C20.574606,147.365173 25.225288,144.635132 29.885292,141.921097 
	C39.612648,136.255798 49.203636,130.333405 59.134247,125.049644 
	C64.167778,122.371460 68.241257,117.271111 74.833405,118.000648 
	C75.224831,121.045425 75.616249,124.090202 76.012405,127.943893 
	C77.710632,134.894150 79.327881,141.058807 81.188911,147.148956 
	C81.436577,147.959427 82.921471,148.391830 83.833405,148.999313 
	C84.672165,155.890915 88.820625,161.127869 92.813324,166.563049 
	C92.886345,165.614670 92.959373,164.666275 93.379593,163.314026 
	C94.020256,162.592422 94.313728,162.274673 94.607193,161.956909 
	C94.126991,161.638504 93.646797,161.320099 93.166595,161.001694 
	C92.787819,156.307022 92.409035,151.612366 92.420837,146.416840 
	C93.416023,145.310913 94.020630,144.705811 94.625244,144.100723 
	C94.043198,143.721680 93.461151,143.342621 92.879105,142.963577 
	C92.929695,141.581802 92.980293,140.200027 93.421158,138.367126 
	C94.416023,137.310913 95.020638,136.705811 95.625244,136.100723 
	C95.043198,135.721680 94.461151,135.342621 93.879105,134.963577 
	C93.928528,134.524826 93.977951,134.086075 94.419128,133.282623 
	C95.353462,132.569901 96.183479,132.346191 96.395752,131.855347 
	C99.947922,123.641586 103.483734,115.418968 106.829613,107.120277 
	C107.201973,106.196732 106.395424,104.797882 106.135597,103.619453 
	C106.135597,103.619453 106.116226,103.120277 106.653053,103.015137 
	C108.322365,102.334915 109.454857,101.759842 110.587349,101.184769 
	C110.018478,100.777206 109.449600,100.369637 108.880730,99.962074 
	C110.681190,97.718445 112.481651,95.474808 115.000717,93.106743 
	C120.015839,92.581329 124.487854,92.490555 125.999290,87.166595 
	C127.216171,87.197449 128.433044,87.228294 129.881546,87.930450 
	C133.780151,90.387032 137.447159,92.172302 141.114151,93.957573 
	C145.742691,101.047379 150.371246,108.137184 154.781250,115.782234 
	C155.319595,117.558075 156.076508,118.778671 156.833405,119.999268 
	C157.224182,120.765228 157.614975,121.531189 157.770340,122.840378 
	C158.238770,132.784576 161.726532,139.311096 167.241486,140.414291 
	C166.288757,139.002945 165.594147,137.973953 164.899521,136.944946 
	C164.943283,134.916321 164.987061,132.887680 165.421112,130.387512 
	C166.416016,129.310867 167.020630,128.705765 167.625244,128.100677 
	C167.043182,127.721649 166.461136,127.342621 165.879089,126.963593 
	C165.929688,125.903725 165.980301,124.843864 166.421173,123.350006 
	C167.416031,122.310905 168.020630,121.705803 168.625229,121.100693 
	C168.043182,120.721657 167.461121,120.342621 166.879074,119.963585 
	C166.929550,119.219948 166.980011,118.476318 167.420944,117.324341 
	C168.416016,116.310898 169.020615,115.705795 169.625214,115.100693 
	C169.043182,114.721657 168.461121,114.342621 167.879074,113.963585 
	C167.928513,113.524818 167.977936,113.086052 168.411560,112.285103 
	C171.409592,110.861305 171.437332,109.553513 169.166611,108.026909 
	C169.131287,107.855583 169.095978,107.684265 169.465942,107.204300 
	C170.402588,106.533737 171.195282,106.292191 171.425797,105.791702 
	C174.498840,99.119835 177.518723,92.422707 180.421417,85.675751 
	C180.548553,85.380226 179.422775,84.545654 178.880615,83.962173 
	C180.014740,82.384964 181.148849,80.807755 183.000137,79.106323 
	C187.140060,78.678436 190.805649,78.670776 190.302246,73.580681 
	C190.302246,73.580681 190.446289,73.436134 190.950134,73.602356 
	C195.911636,74.394493 199.563950,73.174973 201.999191,69.166595 
	C205.182205,69.178833 208.365234,69.191071 211.840027,69.911728 
	C217.125916,72.732620 222.120026,74.845100 227.114151,76.957573 
	C229.333130,79.066872 231.552109,81.176170 233.896271,83.892853 
	C234.028229,84.703819 234.034973,84.907417 234.041718,85.111008 
	C235.166489,87.020561 236.291275,88.930122 237.810898,91.177948 
	C238.368179,91.734032 238.577408,91.888390 238.833466,91.979294 
	C239.224136,92.750748 239.614792,93.522202 239.771362,94.836594 
	C240.969330,99.252304 242.401382,103.125076 243.833420,106.997856 
	C244.545181,112.715103 245.256927,118.432343 245.624420,124.728302 
	C244.680084,125.958389 244.079987,126.609764 243.479889,127.261139 
	C244.026901,127.519569 244.573898,127.778000 245.120911,128.036438 
	C245.070297,129.426758 245.019684,130.817062 244.624634,132.757202 
	C243.680099,133.958405 243.079987,134.609802 242.479889,135.261169 
	C243.026886,135.519592 243.573914,135.778000 244.120926,136.036423 
	C244.070465,136.787766 244.019989,137.539108 243.600952,138.812805 
	C242.028198,140.218781 239.799484,140.978912 242.865677,142.377289 
	C242.884247,142.721283 242.902817,143.065292 242.417587,143.673859 
	C240.970367,144.587982 239.220154,145.289703 239.258057,145.875809 
	C239.328491,146.964996 240.441696,147.986740 241.120758,149.036575 
	C241.071365,149.474991 241.021988,149.913406 240.548859,150.686142 
	C239.094986,153.387894 238.064865,155.755325 237.034760,158.122772 
	C237.115387,159.750183 237.195999,161.377609 237.683578,163.415833 
	C238.929840,164.339706 239.873413,165.405029 240.590240,165.269669 
	C243.600845,164.701157 246.593567,163.921188 249.498535,162.939606 
	C253.063446,161.735046 256.534271,160.252060 260.045776,158.889435 
	C262.267517,160.678162 264.489288,162.466873 266.861450,164.873474 
	C267.022095,165.698380 267.032349,165.905396 267.042572,166.112396 
	C265.151520,166.376678 263.087036,166.256744 261.416870,167.010483 
	C259.654633,167.805832 258.268524,169.434692 256.069824,170.903290 
	C253.341614,172.620453 253.766479,173.523956 256.115845,173.958954 
	C261.467163,180.528976 266.884918,187.046295 272.151855,193.683304 
	C277.824524,200.831665 283.355865,208.092178 288.518127,215.710739 
	C287.845978,216.188416 287.604584,216.259125 287.363159,216.329819 
z"/>
<path fill="#FE644C" opacity="1.000000" stroke="none" 
	d="
M74.900856,117.598663 
	C68.241257,117.271111 64.167778,122.371460 59.134247,125.049644 
	C49.203636,130.333405 39.612648,136.255798 29.885292,141.921097 
	C25.225288,144.635132 20.574606,147.365173 15.527937,150.234497 
	C15.286889,149.185852 15.014869,147.277542 15.650649,146.900681 
	C28.705484,139.162155 41.871902,131.612167 54.998123,123.993660 
	C61.329639,120.318810 67.624260,116.580383 74.592506,112.484627 
	C74.750809,114.469505 74.859558,115.833099 74.900856,117.598663 
z"/>
<path fill="#FE644C" opacity="1.000000" stroke="none" 
	d="
M105.874336,103.800804 
	C106.395424,104.797882 107.201973,106.196732 106.829613,107.120277 
	C103.483734,115.418968 99.947922,123.641586 96.395752,131.855347 
	C96.183479,132.346191 95.353462,132.569901 94.488739,132.958527 
	C95.555405,122.369553 99.878754,112.897560 105.874336,103.800804 
z"/>
<path fill="#FE644C" opacity="1.000000" stroke="none" 
	d="
M302.591736,278.096741 
	C302.661713,278.697113 302.246490,279.725433 302.000092,279.686462 
	C291.593414,278.040283 281.173218,276.372986 273.081970,268.256470 
	C280.396912,270.789734 287.708374,273.760681 295.104218,276.504120 
	C297.344574,277.335175 299.818359,277.536896 302.591736,278.096741 
z"/>
<path fill="#FE644C" opacity="1.000000" stroke="none" 
	d="
M178.569733,84.108612 
	C179.422775,84.545654 180.548553,85.380226 180.421417,85.675751 
	C177.518723,92.422707 174.498840,99.119835 171.425797,105.791702 
	C171.195282,106.292191 170.402588,106.533737 169.518921,106.947327 
	C170.686523,98.813713 173.097000,90.984428 178.569733,84.108612 
z"/>
<path fill="#FE644C" opacity="1.000000" stroke="none" 
	d="
M259.905579,158.585327 
	C256.534271,160.252060 253.063446,161.735046 249.498535,162.939606 
	C246.593567,163.921188 243.600845,164.701157 240.590240,165.269669 
	C239.873413,165.405029 238.929840,164.339706 238.045776,163.496613 
	C244.568451,161.356415 251.128860,159.519531 257.715271,157.781204 
	C258.313019,157.623459 259.078033,158.099487 259.905579,158.585327 
z"/>
<path fill="#FE644C" opacity="1.000000" stroke="none" 
	d="
M330.565552,254.160736 
	C331.462677,254.406631 332.615051,255.107742 332.548187,255.254959 
	C330.108612,260.624725 327.637451,265.985657 324.912964,271.213470 
	C324.579742,271.852844 322.804535,271.740692 321.305359,271.960022 
	C325.371979,266.796112 328.889709,261.149139 330.565552,254.160736 
z"/>
<path fill="#FE644C" opacity="1.000000" stroke="none" 
	d="
M83.889755,148.617249 
	C82.921471,148.391830 81.436577,147.959427 81.188911,147.148956 
	C79.327881,141.058807 77.710632,134.894150 76.029404,128.318817 
	C76.685196,128.430450 77.686264,128.855881 77.916443,129.540497 
	C80.002983,135.746292 81.954819,141.997360 83.889755,148.617249 
z"/>
<path fill="#FE644C" opacity="1.000000" stroke="none" 
	d="
M164.562881,136.818558 
	C165.594147,137.973953 166.288757,139.002945 167.241486,140.414291 
	C161.726532,139.311096 158.238770,132.784576 157.821014,123.167358 
	C160.146820,127.531464 162.186523,132.111816 164.562881,136.818558 
z"/>
<path fill="#FE644C" opacity="1.000000" stroke="none" 
	d="
M92.558006,234.953033 
	C93.038345,235.802811 93.362267,237.455734 93.178551,237.514236 
	C88.251740,239.082886 83.272766,240.487701 77.858231,241.804977 
	C80.950386,239.795578 84.447044,237.820236 88.045372,236.051788 
	C89.288483,235.440842 90.784508,235.344513 92.558006,234.953033 
z"/>
<path fill="#FE644C" opacity="1.000000" stroke="none" 
	d="
M320.621552,272.060394 
	C320.013214,273.550842 319.410797,276.209503 318.091248,276.632843 
	C314.268921,277.859131 310.158447,278.187256 306.081726,278.517242 
	C310.768188,276.180237 315.534027,274.193878 320.621552,272.060394 
z"/>
<path fill="#FE644C" opacity="1.000000" stroke="none" 
	d="
M278.424683,314.850525 
	C274.943665,314.177094 274.646576,311.855011 276.420013,309.895691 
	C278.257782,307.865326 277.490173,303.027496 282.709473,304.030823 
	C281.655212,307.580475 280.196198,311.118561 278.424683,314.850525 
z"/>
<path fill="#FE644C" opacity="1.000000" stroke="none" 
	d="
M290.348389,356.787506 
	C290.671631,354.118774 291.344177,351.404083 292.029541,348.287567 
	C294.367218,349.156097 296.692078,350.426392 299.617676,352.024963 
	C296.236694,353.812714 293.467194,355.277130 290.348389,356.787506 
z"/>
<path fill="#FE644C" opacity="1.000000" stroke="none" 
	d="
M237.564758,284.163300 
	C242.160965,284.707642 238.648026,287.347443 238.429703,288.282227 
	C237.615768,291.767120 237.680054,296.375946 231.968048,296.523468 
	C233.485611,292.322815 235.368256,288.342712 237.564758,284.163300 
z"/>
<path fill="#FE644C" opacity="1.000000" stroke="none" 
	d="
M150.110901,196.388580 
	C150.911850,196.933212 152.090607,197.765366 152.330109,198.812393 
	C153.623306,204.465668 154.683670,210.172180 155.495453,215.929092 
	C153.462784,209.590332 151.759003,203.182800 150.110901,196.388580 
z"/>
<path fill="#FE644C" opacity="1.000000" stroke="none" 
	d="
M330.081146,238.416534 
	C330.805237,238.252075 331.940918,238.194977 332.598297,238.727875 
	C333.903900,239.786285 333.175354,250.418289 331.514893,251.949097 
	C330.869873,247.596298 330.573181,243.193512 330.081146,238.416534 
z"/>
<path fill="#FE644C" opacity="1.000000" stroke="none" 
	d="
M125.625626,87.109100 
	C124.487854,92.490555 120.015839,92.581329 115.302505,92.970001 
	C118.341118,90.988991 121.796532,89.020294 125.625626,87.109100 
z"/>
<path fill="#FE644C" opacity="1.000000" stroke="none" 
	d="
M226.960754,76.641907 
	C222.120026,74.845100 217.125916,72.732620 212.086243,70.251961 
	C216.962921,72.031258 221.885147,74.178741 226.960754,76.641907 
z"/>
<path fill="#FE644C" opacity="1.000000" stroke="none" 
	d="
M344.417206,299.867920 
	C340.982269,298.504089 342.096436,296.466522 344.018402,294.170013 
	C344.723999,293.292816 344.862000,292.646393 345.000000,292.000000 
	C345.661438,291.364349 346.322876,290.728668 347.386078,290.139465 
	C346.766113,293.354309 345.744385,296.522736 344.417206,299.867920 
z"/>
<path fill="#FE644C" opacity="1.000000" stroke="none" 
	d="
M201.613678,69.111221 
	C199.563950,73.174973 195.911636,74.394493 191.038788,73.551880 
	C194.158478,71.908745 197.693314,70.482300 201.613678,69.111221 
z"/>
<path fill="#FE644C" opacity="1.000000" stroke="none" 
	d="
M247.118500,233.209061 
	C243.833206,229.554260 245.066132,226.919113 250.711731,226.030609 
	C249.868683,228.370178 248.623138,230.698029 247.118500,233.209061 
z"/>
<path fill="#FE644C" opacity="1.000000" stroke="none" 
	d="
M313.854492,211.820602 
	C314.635773,212.167755 315.671936,212.922318 315.552856,213.230438 
	C314.417084,216.169495 313.085663,219.032928 311.488495,221.958618 
	C311.968842,218.673065 312.771088,215.346970 313.854492,211.820602 
z"/>
<path fill="#FE644C" opacity="1.000000" stroke="none" 
	d="
M247.889404,244.619141 
	C243.610092,242.830124 242.781647,238.312317 246.401993,234.933258 
	C247.189331,238.016525 247.567352,241.127686 247.889404,244.619141 
z"/>
<path fill="#FE644C" opacity="1.000000" stroke="none" 
	d="
M220.620590,299.097778 
	C219.723831,299.630249 218.080521,300.835358 217.244675,300.419067 
	C214.699677,299.151581 212.466217,297.258575 210.082245,295.257629 
	C213.449753,296.280426 216.846512,297.654694 220.620590,299.097778 
z"/>
<path fill="#FE644C" opacity="1.000000" stroke="none" 
	d="
M243.899689,106.601105 
	C242.401382,103.125076 240.969330,99.252304 239.822205,95.165321 
	C241.393417,98.702194 242.679688,102.453278 243.899689,106.601105 
z"/>
<path fill="#FE644C" opacity="1.000000" stroke="none" 
	d="
M140.961029,93.642204 
	C137.447159,92.172302 133.780151,90.387032 130.077026,88.242859 
	C133.629883,89.698250 137.218887,91.512543 140.961029,93.642204 
z"/>
<path fill="#FE644C" opacity="1.000000" stroke="none" 
	d="
M330.343414,312.790802 
	C329.417023,306.730438 333.851135,308.163086 337.674377,308.029785 
	C335.638763,309.610931 333.163269,311.179504 330.343414,312.790802 
z"/>
<path fill="#FE644C" opacity="1.000000" stroke="none" 
	d="
M190.013733,73.698853 
	C190.805649,78.670776 187.140060,78.678436 183.301514,78.969902 
	C185.165558,77.244141 187.445404,75.530586 190.013733,73.698853 
z"/>
<path fill="#FE644C" opacity="1.000000" stroke="none" 
	d="
M231.005432,296.704102 
	C231.614838,300.899933 229.806686,301.871246 225.087891,299.520874 
	C226.904984,298.386139 228.807220,297.605682 231.005432,296.704102 
z"/>
<path fill="#FE644C" opacity="1.000000" stroke="none" 
	d="
M83.210899,257.346252 
	C84.865074,257.005188 86.563644,257.011292 88.688232,257.029846 
	C88.192139,258.684723 87.270004,260.327118 86.035400,262.526062 
	C84.932289,260.608521 84.093788,259.150970 83.210899,257.346252 
z"/>
<path fill="#FE644C" opacity="1.000000" stroke="none" 
	d="
M241.409561,148.877228 
	C240.441696,147.986740 239.328491,146.964996 239.258057,145.875809 
	C239.220154,145.289703 240.970367,144.587982 242.362961,143.926971 
	C242.440872,145.516296 242.069611,147.117096 241.409561,148.877228 
z"/>
<path fill="#FE644C" opacity="1.000000" stroke="none" 
	d="
M237.401382,158.058228 
	C238.064865,155.755325 239.094986,153.387894 240.479248,151.009964 
	C239.811615,153.330872 238.789810,155.662277 237.401382,158.058228 
z"/>
<path fill="#FE644C" opacity="1.000000" stroke="none" 
	d="
M209.100235,238.387665 
	C210.255051,240.879440 211.343536,243.756760 212.161942,246.841019 
	C210.939209,244.289719 209.986557,241.531464 209.100235,238.387665 
z"/>
<path fill="#FE644C" opacity="1.000000" stroke="none" 
	d="
M296.496124,308.709991 
	C299.160034,309.303162 302.003967,310.221924 304.922791,311.487030 
	C302.223846,310.900787 299.450012,309.968170 296.496124,308.709991 
z"/>
<path fill="#FE644C" opacity="1.000000" stroke="none" 
	d="
M369.366516,252.948761 
	C369.519623,251.487961 369.982361,249.889191 370.777130,248.121674 
	C375.459045,250.996277 371.090576,251.467850 369.366516,252.948761 
z"/>
<path fill="#FE644C" opacity="1.000000" stroke="none" 
	d="
M239.097473,276.386444 
	C241.384216,278.116852 241.874954,280.126831 238.485992,281.959351 
	C238.453842,280.256561 238.741104,278.514008 239.097473,276.386444 
z"/>
<path fill="#FE644C" opacity="1.000000" stroke="none" 
	d="
M95.369553,251.946198 
	C94.799637,248.702927 96.453453,247.582367 100.000221,248.462402 
	C98.820900,249.723801 97.251656,250.764755 95.369553,251.946198 
z"/>
<path fill="#FE644C" opacity="1.000000" stroke="none" 
	d="
M276.911316,322.628967 
	C273.933502,321.184296 273.719055,319.511200 277.463409,318.012634 
	C277.552002,319.419708 277.270630,320.839905 276.911316,322.628967 
z"/>
<path fill="#FE644C" opacity="1.000000" stroke="none" 
	d="
M100.975380,248.308563 
	C99.825043,244.530396 102.079140,244.850586 104.823776,245.817139 
	C103.784256,246.802475 102.519081,247.498444 100.975380,248.308563 
z"/>
<path fill="#FE644C" opacity="1.000000" stroke="none" 
	d="
M272.943176,267.632141 
	C271.086700,266.833832 269.086670,265.724396 267.063965,264.249725 
	C268.960724,265.029968 270.880188,266.175476 272.943176,267.632141 
z"/>
<path fill="#FE644C" opacity="1.000000" stroke="none" 
	d="
M348.128662,289.193787 
	C347.062073,288.516998 346.257446,287.659027 345.452789,286.801056 
	C346.333313,286.534760 347.213806,286.268433 348.463867,286.000763 
	C348.685791,287.003815 348.538177,288.008240 348.128662,289.193787 
z"/>
<path fill="#FE644C" opacity="1.000000" stroke="none" 
	d="
M359.112427,256.420044 
	C360.787231,255.777557 362.679504,255.504272 364.963989,255.448776 
	C363.642090,257.622437 361.809814,258.944061 359.112427,256.420044 
z"/>
<path fill="#FE644C" opacity="1.000000" stroke="none" 
	d="
M347.931274,251.644226 
	C347.063232,251.352661 346.320221,250.847061 345.577179,250.341431 
	C347.009094,250.359421 348.441010,250.377396 349.916138,250.755783 
	C349.324982,251.220856 348.690643,251.325516 347.931274,251.644226 
z"/>
<path fill="#FE644C" opacity="1.000000" stroke="none" 
	d="
M108.584137,100.095253 
	C109.449600,100.369637 110.018478,100.777206 110.587349,101.184769 
	C109.454857,101.759842 108.322365,102.334915 106.779388,102.799667 
	C107.008438,101.869041 107.647987,101.048737 108.584137,100.095253 
z"/>
<path fill="#FE644C" opacity="1.000000" stroke="none" 
	d="
M349.410431,282.872742 
	C348.189270,282.485809 347.266571,281.927124 345.574158,280.902374 
	C347.277100,280.472595 348.209961,280.237152 349.488098,280.000610 
	C349.791870,280.899963 349.750397,281.800446 349.410431,282.872742 
z"/>
<path fill="#FE644C" opacity="1.000000" stroke="none" 
	d="
M108.381851,156.062317 
	C109.138687,154.427536 110.244438,152.730331 111.732208,151.037750 
	C110.986412,152.694870 109.858582,154.347397 108.381851,156.062317 
z"/>
<path fill="#FE644C" opacity="1.000000" stroke="none" 
	d="
M168.999664,108.345757 
	C171.437332,109.553513 171.409592,110.861305 168.481171,111.961006 
	C168.388626,110.887596 168.610672,109.776100 168.999664,108.345757 
z"/>
<path fill="#FE644C" opacity="1.000000" stroke="none" 
	d="
M147.107544,188.354980 
	C147.916656,189.556091 148.666733,191.110321 149.154358,192.856262 
	C148.277435,191.601349 147.662979,190.154739 147.107544,188.354980 
z"/>
<path fill="#FE644C" opacity="1.000000" stroke="none" 
	d="
M156.893860,119.664780 
	C156.076508,118.778671 155.319595,117.558075 154.834900,116.144287 
	C155.722855,117.077492 156.338577,118.203896 156.893860,119.664780 
z"/>
<path fill="#FE644C" opacity="1.000000" stroke="none" 
	d="
M91.342110,254.978271 
	C92.122772,254.084076 93.203125,253.054016 94.685204,252.040283 
	C93.938560,252.985199 92.790184,253.913788 91.342110,254.978271 
z"/>
<path fill="#FE644C" opacity="1.000000" stroke="none" 
	d="
M92.581940,143.134888 
	C93.461151,143.342621 94.043198,143.721680 94.625244,144.100723 
	C94.020630,144.705811 93.416023,145.310913 92.489006,145.957520 
	C92.205994,145.101425 92.245384,144.203827 92.581940,143.134888 
z"/>
<path fill="#FE644C" opacity="1.000000" stroke="none" 
	d="
M167.581909,114.134903 
	C168.461121,114.342621 169.043182,114.721657 169.625214,115.100693 
	C169.020615,115.705795 168.416016,116.310898 167.489014,116.957535 
	C167.205978,116.101448 167.245361,115.203835 167.581909,114.134903 
z"/>
<path fill="#FE644C" opacity="1.000000" stroke="none" 
	d="
M210.657608,216.003601 
	C210.608856,216.956787 210.217712,217.913559 209.496613,218.933533 
	C208.952225,218.688416 208.737808,218.380081 208.263214,217.952545 
	C208.773743,217.224640 209.544464,216.615921 210.657608,216.003601 
z"/>
<path fill="#FE644C" opacity="1.000000" stroke="none" 
	d="
M166.581909,120.134903 
	C167.461121,120.342621 168.043182,120.721657 168.625229,121.100693 
	C168.020630,121.705803 167.416031,122.310905 166.489014,122.957535 
	C166.205978,122.101448 166.245361,121.203835 166.581909,120.134903 
z"/>
<path fill="#FE644C" opacity="1.000000" stroke="none" 
	d="
M93.581940,135.134888 
	C94.461151,135.342621 95.043198,135.721680 95.625244,136.100723 
	C95.020638,136.705811 94.416023,137.310913 93.489014,137.957520 
	C93.205994,137.101425 93.245384,136.203827 93.581940,135.134888 
z"/>
<path fill="#FE644C" opacity="1.000000" stroke="none" 
	d="
M208.581894,221.134918 
	C209.461121,221.342621 210.043182,221.721649 210.625244,222.100677 
	C210.020645,222.705795 209.416031,223.310898 208.489014,223.957520 
	C208.205978,223.101440 208.245346,222.203827 208.581894,221.134918 
z"/>
<path fill="#FE644C" opacity="1.000000" stroke="none" 
	d="
M165.581909,127.134903 
	C166.461136,127.342621 167.043182,127.721649 167.625244,128.100677 
	C167.020630,128.705765 166.416016,129.310867 165.488998,129.957504 
	C165.205963,129.101425 165.245346,128.203827 165.581909,127.134903 
z"/>
<path fill="#FE644C" opacity="1.000000" stroke="none" 
	d="
M245.416321,127.867920 
	C244.573898,127.778000 244.026901,127.519569 243.479889,127.261139 
	C244.079987,126.609764 244.680084,125.958389 245.556824,125.169426 
	C245.792877,125.921028 245.752304,126.810211 245.416321,127.867920 
z"/>
<path fill="#FE644C" opacity="1.000000" stroke="none" 
	d="
M365.954773,255.320435 
	C366.547882,254.628342 367.414185,253.826065 368.683655,253.040222 
	C368.133850,253.774490 367.180878,254.492371 365.954773,255.320435 
z"/>
<path fill="#FE644C" opacity="1.000000" stroke="none" 
	d="
M254.335602,222.982788 
	C254.912674,222.161652 255.782944,221.209152 257.026123,220.473679 
	C256.475647,221.410950 255.552200,222.131180 254.335602,222.982788 
z"/>
<path fill="#FE644C" opacity="1.000000" stroke="none" 
	d="
M244.416321,135.867905 
	C243.573914,135.778000 243.026886,135.519592 242.479889,135.261169 
	C243.079987,134.609802 243.680099,133.958405 244.556824,133.169434 
	C244.792877,133.921036 244.752289,134.810211 244.416321,135.867905 
z"/>
<path fill="#FE644C" opacity="1.000000" stroke="none" 
	d="
M243.125488,142.197357 
	C239.799484,140.978912 242.028198,140.218781 243.532928,139.183533 
	C243.684067,140.027084 243.534668,141.022263 243.125488,142.197357 
z"/>
<path fill="#FE644C" opacity="1.000000" stroke="none" 
	d="
M257.956055,220.325638 
	C258.344116,219.802353 258.986237,219.173782 259.838654,218.826126 
	C259.436005,219.478134 258.823090,219.849243 257.956055,220.325638 
z"/>
<path fill="#FE644C" opacity="1.000000" stroke="none" 
	d="
M256.068848,173.595673 
	C253.766479,173.523956 253.341614,172.620453 255.768814,171.074020 
	C256.084656,171.771378 256.053253,172.501892 256.068848,173.595673 
z"/>
<path fill="#FE644C" opacity="1.000000" stroke="none" 
	d="
M340.976013,226.659256 
	C340.117554,226.514542 339.120941,226.071533 338.088501,225.267273 
	C338.981079,225.390991 339.909485,225.875961 340.976013,226.659256 
z"/>
<path fill="#FE644C" opacity="1.000000" stroke="none" 
	d="
M209.953918,294.643951 
	C209.096542,294.497009 208.106171,294.050751 207.078400,293.244263 
	C207.967621,293.370911 208.894272,293.857788 209.953918,294.643951 
z"/>
<path fill="#FE644C" opacity="1.000000" stroke="none" 
	d="
M316.981384,209.666199 
	C316.464752,209.992035 315.815582,210.026733 314.677155,210.075821 
	C314.263458,209.481079 314.339050,208.871964 314.414612,208.262848 
	C315.226044,208.633575 316.037476,209.004318 316.981384,209.666199 
z"/>
<path fill="#FE644C" opacity="1.000000" stroke="none" 
	d="
M347.975311,231.658417 
	C347.115540,231.507919 346.116943,231.058258 345.079620,230.246323 
	C345.972748,230.375778 346.904633,230.867508 347.975311,231.658417 
z"/>
<path fill="#FE644C" opacity="1.000000" stroke="none" 
	d="
M357.976013,238.659241 
	C357.117554,238.514526 356.120941,238.071518 355.088501,237.267242 
	C355.981079,237.390976 356.909485,237.875946 357.976013,238.659241 
z"/>
<path fill="#FE644C" opacity="1.000000" stroke="none" 
	d="
M337.953918,224.643967 
	C337.096527,224.497025 336.106171,224.050766 335.078339,223.244293 
	C335.967560,223.370911 336.894226,223.857773 337.953918,224.643967 
z"/>
<path fill="#FE644C" opacity="1.000000" stroke="none" 
	d="
M354.953918,236.643967 
	C354.096527,236.497009 353.106171,236.050766 352.078339,235.244293 
	C352.967560,235.370926 353.894226,235.857788 354.953918,236.643967 
z"/>
<path fill="#FE644C" opacity="1.000000" stroke="none" 
	d="
M364.953918,243.643951 
	C364.096527,243.497009 363.106171,243.050766 362.078339,242.244278 
	C362.967560,242.370911 363.894226,242.857773 364.953918,243.643951 
z"/>
<path fill="#FE644C" opacity="1.000000" stroke="none" 
	d="
M330.975311,219.658401 
	C330.115540,219.507919 329.116943,219.058258 328.079620,218.246307 
	C328.972748,218.375778 329.904633,218.867508 330.975311,219.658401 
z"/>
<path fill="#FE644C" opacity="1.000000" stroke="none" 
	d="
M278.892090,331.658447 
	C278.284485,331.340424 277.735565,330.682739 277.302490,329.665070 
	C277.929138,329.976318 278.439941,330.647583 278.892090,331.658447 
z"/>
<path fill="#FE644C" opacity="1.000000" stroke="none" 
	d="
M367.505249,245.381897 
	C366.779694,245.356583 365.959808,245.006973 365.096252,244.281754 
	C365.838684,244.289948 366.624817,244.673752 367.505249,245.381897 
z"/>
<path fill="#FE644C" opacity="1.000000" stroke="none" 
	d="
M217.466461,315.716064 
	C218.143890,315.656433 218.982498,315.889740 219.909317,316.478241 
	C219.207565,316.558624 218.417603,316.283813 217.466461,315.716064 
z"/>
<path fill="#FE644C" opacity="1.000000" stroke="none" 
	d="
M143.104095,179.303223 
	C143.568329,179.581726 143.970078,180.162018 144.131973,180.895264 
	C143.608612,180.567154 143.325104,180.086090 143.104095,179.303223 
z"/>
<path fill="#FE644C" opacity="1.000000" stroke="none" 
	d="
M196.101364,294.332306 
	C196.646790,294.320129 197.126999,294.638519 197.607208,294.956909 
	C197.313736,295.274689 197.020264,295.592468 196.446686,295.954102 
	C196.123108,295.552917 196.079620,295.107910 196.101364,294.332306 
z"/>
<path fill="#FE644C" opacity="1.000000" stroke="none" 
	d="
M206.466461,310.716064 
	C207.143890,310.656433 207.982498,310.889771 208.909317,311.478241 
	C208.207565,311.558594 207.417603,311.283813 206.466461,310.716064 
z"/>
<path fill="#FE644C" opacity="1.000000" stroke="none" 
	d="
M197.100342,302.270203 
	C197.393845,302.670074 197.621109,303.338531 197.520233,304.089355 
	C197.139435,303.627411 197.086761,303.083069 197.100342,302.270203 
z"/>
<path fill="#FE644C" opacity="1.000000" stroke="none" 
	d="
M93.101364,161.332275 
	C93.646797,161.320099 94.126991,161.638504 94.607193,161.956909 
	C94.313728,162.274673 94.020256,162.592422 93.446686,162.954041 
	C93.123100,162.552872 93.079613,162.107864 93.101364,161.332275 
z"/>
<path fill="#FE644C" opacity="1.000000" stroke="none" 
	d="
M289.466461,305.716003 
	C290.143890,305.656403 290.982483,305.889771 291.909332,306.478271 
	C291.207581,306.558563 290.417633,306.283752 289.466461,305.716003 
z"/>
<path fill="#FE644C" opacity="1.000000" stroke="none" 
	d="
M199.516968,307.647247 
	C200.228882,307.596954 201.036606,307.867279 201.921097,308.485474 
	C201.202835,308.544891 200.407806,308.256348 199.516968,307.647247 
z"/>
<path fill="#FE644C" opacity="1.000000" stroke="none" 
	d="
M138.283447,238.012573 
	C138.034973,237.907394 138.028229,237.703812 138.031555,237.194565 
	C138.202820,237.230667 138.363983,237.572403 138.283447,238.012573 
z"/>
<path fill="#FE644C" opacity="1.000000" stroke="none" 
	d="
M108.268921,160.852264 
	C108.111610,160.577408 108.265968,160.368179 108.658623,160.114365 
	C108.987053,160.402298 108.881607,160.684982 108.268921,160.852264 
z"/>
<path fill="#FE644C" opacity="1.000000" stroke="none" 
	d="
M234.283432,85.012589 
	C234.034973,84.907417 234.028229,84.703819 234.031555,84.194588 
	C234.202820,84.230690 234.363983,84.572433 234.283432,85.012589 
z"/>
<path fill="#FE644C" opacity="1.000000" stroke="none" 
	d="
M267.284119,166.009323 
	C267.032349,165.905396 267.022095,165.698380 267.004089,165.179565 
	C267.172821,165.213943 267.349274,165.560089 267.284119,166.009323 
z"/>
<path fill="#FE644C" opacity="1.000000" stroke="none" 
	d="
M287.521545,216.577789 
	C287.604584,216.259125 287.845978,216.188416 288.460419,216.061279 
	C288.448944,216.278488 288.064423,216.552124 287.521545,216.577789 
z"/>
<path fill="#FE644C" opacity="1.000000" stroke="none" 
	d="
M196.478516,285.422241 
	C196.395447,285.740936 196.154053,285.811615 195.539581,285.938751 
	C195.551086,285.721558 195.935638,285.447906 196.478516,285.422241 
z"/>
<path fill="#FE644C" opacity="1.000000" stroke="none" 
	d="
M238.852264,91.731079 
	C238.577408,91.888390 238.368179,91.734032 238.114365,91.341377 
	C238.402298,91.012947 238.684982,91.118393 238.852264,91.731079 
z"/>
<path fill="#FFFFFF" opacity="1.000000" stroke="none" 
	d="
M210.040054,212.882935 
	C209.951538,211.626923 209.863007,210.370895 209.799713,208.716354 
	C209.551285,207.934067 209.277618,207.550293 209.003967,207.166534 
	C205.969131,207.121201 202.934296,207.075882 199.102325,207.038879 
	C197.217133,207.326187 196.129089,207.605148 195.041031,207.884125 
	C190.412521,199.804306 185.784012,191.724503 181.055115,182.997086 
	C180.565933,180.961655 180.177155,179.573807 179.788376,178.185974 
	C179.199509,166.444977 178.610641,154.703964 178.367371,142.330307 
	C178.753143,140.807648 178.793289,139.917648 178.833466,139.027649 
	C178.896469,137.314301 178.959473,135.600967 179.367737,133.292633 
	C179.753143,131.807648 179.793289,130.917648 179.833435,130.027649 
	C179.896225,129.278992 179.959030,128.530350 180.383850,127.213669 
	C182.535309,122.444565 184.324753,118.243477 186.114197,114.042389 
	C189.917175,110.044067 194.157532,110.861671 197.720718,116.415634 
	C198.925293,118.293228 199.814713,120.373009 200.951660,123.067673 
	C202.425644,128.849396 203.796127,133.923828 205.166611,138.998276 
	C206.113907,145.312866 206.984268,151.640289 208.033401,157.937912 
	C208.841309,162.787537 210.404938,167.570786 210.669952,172.435989 
	C210.988937,178.291931 210.288849,184.203400 210.079742,190.804352 
	C210.129547,191.517899 210.482269,191.870453 210.482269,191.870453 
	C210.482269,191.870453 210.979614,191.833466 210.979614,191.833466 
	C212.406158,191.545074 213.832687,191.256683 215.978119,190.855072 
	C223.480148,187.197861 230.263290,183.653839 237.046432,180.109833 
	C242.124969,184.996109 247.203491,189.882385 252.635773,195.213470 
	C253.310379,196.402725 253.631241,197.147217 253.952118,197.891693 
	C248.942657,197.937790 243.933212,197.983902 238.063019,198.045105 
	C235.970215,198.373459 234.752548,198.769653 233.503723,198.986160 
	C226.702118,200.165436 220.596024,202.683640 215.885773,207.957611 
	C215.253723,208.747742 214.621689,209.537872 213.645325,210.767822 
	C212.214005,211.766083 211.127029,212.324509 210.040054,212.882935 
z"/>
<path fill="#FE644C" opacity="1.000000" stroke="none" 
	d="
M236.838470,179.809738 
	C230.263290,183.653839 223.480148,187.197861 216.348053,190.787689 
	C215.851959,187.892181 215.922058,185.646225 219.831589,184.594940 
	C223.369034,183.643692 226.299957,180.604446 229.798080,179.274033 
	C231.761658,178.527237 234.333008,179.378418 236.838470,179.809738 
z"/>
<path fill="#FE644C" opacity="1.000000" stroke="none" 
	d="
M216.299103,207.969864 
	C220.596024,202.683640 226.702118,200.165436 233.503723,198.986160 
	C234.752548,198.769653 235.970215,198.373459 237.600739,198.113388 
	C237.652832,198.886017 237.487411,200.018066 236.932281,200.261566 
	C230.888123,202.912445 224.790482,205.442612 218.681885,207.943268 
	C218.115082,208.175293 217.373093,207.979355 216.299103,207.969864 
z"/>
<path fill="#FE644C" opacity="1.000000" stroke="none" 
	d="
M185.683655,114.029900 
	C184.324753,118.243477 182.535309,122.444565 180.434021,126.840485 
	C179.431137,125.978706 178.177277,124.928085 178.165955,123.864243 
	C178.142212,121.632538 178.729996,119.386101 179.142914,117.159843 
	C179.818634,113.516777 182.634216,113.936127 185.683655,114.029900 
z"/>
<path fill="#FE644C" opacity="1.000000" stroke="none" 
	d="
M205.495300,138.929321 
	C203.796127,133.923828 202.425644,128.849396 201.110870,123.388405 
	C205.133026,127.579086 206.161392,133.019180 205.495300,138.929321 
z"/>
<path fill="#FE644C" opacity="1.000000" stroke="none" 
	d="
M254.003128,198.261139 
	C253.631241,197.147217 253.310379,196.402725 252.937057,195.349854 
	C254.107010,195.474182 255.694366,195.580887 256.451904,196.428894 
	C257.252136,197.324692 257.261444,198.927002 257.616241,200.220688 
	C256.428864,199.690659 255.241501,199.160629 254.003128,198.261139 
z"/>
<path fill="#FE644C" opacity="1.000000" stroke="none" 
	d="
M210.049774,213.213867 
	C211.127029,212.324509 212.214005,211.766083 213.590332,211.085327 
	C216.186340,212.779648 215.609024,214.124390 211.361176,215.993988 
	C210.686493,215.181610 210.372986,214.363205 210.049774,213.213867 
z"/>
<path fill="#FE644C" opacity="1.000000" stroke="none" 
	d="
M179.404144,178.140717 
	C180.177155,179.573807 180.565933,180.961655 180.894058,182.674408 
	C178.194443,182.117050 176.375595,180.931503 179.404144,178.140717 
z"/>
<path fill="#FE644C" opacity="1.000000" stroke="none" 
	d="
M195.072495,208.227997 
	C196.129089,207.605148 197.217133,207.326187 198.652222,207.106903 
	C198.385574,209.533096 197.521667,211.205978 195.072495,208.227997 
z"/>
<path fill="#FE644C" opacity="1.000000" stroke="none" 
	d="
M179.557068,130.166443 
	C179.793289,130.917648 179.753143,131.807648 179.417542,132.866516 
	C178.574844,132.777267 178.027603,132.519165 177.480347,132.261063 
	C178.080460,131.609116 178.680573,130.957184 179.557068,130.166443 
z"/>
<path fill="#FE644C" opacity="1.000000" stroke="none" 
	d="
M178.557068,139.166443 
	C178.793289,139.917648 178.753143,140.807648 178.417542,141.866516 
	C177.574844,141.777267 177.027603,141.519165 176.480347,141.261063 
	C177.080460,140.609131 177.680588,139.957184 178.557068,139.166443 
z"/>
<path fill="#FE644C" opacity="1.000000" stroke="none" 
	d="
M344.754333,292.166870 
	C344.862000,292.646393 344.723999,293.292816 344.292999,293.969604 
	C344.169556,293.444580 344.339111,292.889130 344.754333,292.166870 
z"/>
<path fill="#FE644C" opacity="1.000000" stroke="none" 
	d="
M210.887512,191.658676 
	C210.979614,191.833466 210.482269,191.870453 210.482269,191.870453 
	C210.482269,191.870453 210.129547,191.517899 210.148041,191.269226 
	C210.422928,191.111511 210.632568,191.265961 210.887512,191.658676 
z"/>
<path fill="#FE644C" opacity="1.000000" stroke="none" 
	d="
M209.061890,207.539856 
	C209.277618,207.550293 209.551285,207.934067 209.580811,208.477371 
	C209.264389,208.395660 209.192093,208.154419 209.061890,207.539856 
z"/>
</svg>