<svg width="50" height="50" viewBox="0 0 50 50" fill="none" xmlns="http://www.w3.org/2000/svg">
<path d="M14.25 35.75C14.7083 36.2083 15.2917 36.4375 16 36.4375C16.7083 36.4375 17.2917 36.2083 17.75 35.75L25 28.5L32.3125 35.8125C32.7708 36.2708 33.3442 36.4892 34.0325 36.4675C34.7192 36.4475 35.2917 36.2083 35.75 35.75C36.2083 35.2917 36.4375 34.7083 36.4375 34C36.4375 33.2917 36.2083 32.7083 35.75 32.25L28.5 25L35.8125 17.6875C36.2708 17.2292 36.4892 16.6558 36.4675 15.9675C36.4475 15.2808 36.2083 14.7083 35.75 14.25C35.2917 13.7917 34.7083 13.5625 34 13.5625C33.2917 13.5625 32.7083 13.7917 32.25 14.25L25 21.5L17.6875 14.1875C17.2292 13.7292 16.6567 13.51 15.97 13.53C15.2817 13.5517 14.7083 13.7917 14.25 14.25C13.7917 14.7083 13.5625 15.2917 13.5625 16C13.5625 16.7083 13.7917 17.2917 14.25 17.75L21.5 25L14.1875 32.3125C13.7292 32.7708 13.5108 33.3433 13.5325 34.03C13.5525 34.7183 13.7917 35.2917 14.25 35.75ZM25 50C21.5417 50 18.2917 49.3433 15.25 48.03C12.2083 46.7183 9.5625 44.9375 7.3125 42.6875C5.0625 40.4375 3.28167 37.7917 1.97 34.75C0.656667 31.7083 0 28.4583 0 25C0 21.5417 0.656667 18.2917 1.97 15.25C3.28167 12.2083 5.0625 9.5625 7.3125 7.3125C9.5625 5.0625 12.2083 3.28083 15.25 1.9675C18.2917 0.655833 21.5417 0 25 0C28.4583 0 31.7083 0.655833 34.75 1.9675C37.7917 3.28083 40.4375 5.0625 42.6875 7.3125C44.9375 9.5625 46.7183 12.2083 48.03 15.25C49.3433 18.2917 50 21.5417 50 25C50 28.4583 49.3433 31.7083 48.03 34.75C46.7183 37.7917 44.9375 40.4375 42.6875 42.6875C40.4375 44.9375 37.7917 46.7183 34.75 48.03C31.7083 49.3433 28.4583 50 25 50Z" fill="#008E71"/>
</svg>
