<svg width="27" height="24" viewBox="0 0 27 24" fill="none" xmlns="http://www.w3.org/2000/svg">
<mask id="mask0_361_2316" style="mask-type:alpha" maskUnits="userSpaceOnUse" x="0" y="0" width="27" height="24">
<rect width="27" height="24" fill="#D9D9D9"/>
</mask>
<g mask="url(#mask0_361_2316)">
<path d="M14.625 23V17L12.2625 15L11.1375 19.4L3.375 18L3.825 16L9.225 17L11.025 8.9L9 9.6V13H6.75V8.3L11.1938 6.6C11.85 6.35 12.3328 6.1875 12.6422 6.1125C12.9516 6.0375 13.2375 6 13.5 6C13.8938 6 14.2594 6.09167 14.5969 6.275C14.9344 6.45833 15.2063 6.7 15.4125 7L16.5375 8.6C17.025 9.3 17.6859 9.875 18.5203 10.325C19.3547 10.775 20.3062 11 21.375 11V13C20.1375 13 18.9797 12.7708 17.9016 12.3125C16.8234 11.8542 15.9187 11.25 15.1875 10.5L14.5125 13.5L16.875 15.5V23H14.625ZM15.1875 5.5C14.5688 5.5 14.0391 5.30417 13.5984 4.9125C13.1578 4.52083 12.9375 4.05 12.9375 3.5C12.9375 2.95 13.1578 2.47917 13.5984 2.0875C14.0391 1.69583 14.5688 1.5 15.1875 1.5C15.8062 1.5 16.3359 1.69583 16.7766 2.0875C17.2172 2.47917 17.4375 2.95 17.4375 3.5C17.4375 4.05 17.2172 4.52083 16.7766 4.9125C16.3359 5.30417 15.8062 5.5 15.1875 5.5Z" fill="#1C1B1F"/>
</g>
</svg>
