<svg width="367.5" height="25" viewBox="0 0 245 20" fill="none" xmlns="http://www.w3.org/2000/svg">
<path d="M4.90297 1.32C7.52297 1.32 9.74297 3.76 9.74297 7.6C9.74297 11.4 7.60297 13.9 4.90297 13.9C2.08297 13.9 0.0429688 11.34 0.0429688 7.6C0.0429688 3.82 2.18297 1.32 4.90297 1.32ZM4.90297 3.12C3.78297 3.12 2.74297 4.64 2.74297 7.6C2.74297 10.42 3.78297 12.1 4.88297 12.1C6.04297 12.1 7.04297 10.5 7.04297 7.6C7.04297 4.62 6.06297 3.12 4.90297 3.12ZM14.843 0.799999V18.9H12.143V0.799999H14.843ZM27.6508 3.6H24.5508V5.44C24.5308 8.68 25.8708 11.24 28.0508 12.08V13.98C25.6308 13.64 23.4308 11.54 23.0708 10.44C22.7108 11.56 20.5908 13.6 18.2508 13.98V12.08C20.4108 11.22 21.7308 8.72 21.7508 5.4V3.6H18.5508V1.8H27.6508V3.6ZM32.6508 8.1V18.9H29.9508V0.799999H32.6508V6.3H35.2508V8.1H32.6508ZM50.8786 8.2H40.7586C39.5386 8.2 38.4786 7.06 38.4786 5.76V3.72H47.9786V2.8H38.4786V0.999999H50.6786V3.82C50.6786 4.72 50.0586 5.52 49.3586 5.52H41.1786V5.74C41.1786 6.12 41.4786 6.4 41.9986 6.4H50.8786V8.2ZM36.4586 9.22H52.6586V11.02H36.4586V9.22ZM50.8786 19.3H40.5586C39.4586 19.3 38.4786 18.16 38.4786 16.86V14.78H47.9586V13.92H38.4786V12.12H50.6786V14.88C50.6786 15.78 50.0586 16.58 49.3586 16.58H41.1786V16.82C41.1786 17.22 41.4786 17.5 41.9986 17.5H50.8786V19.3ZM62.4625 4.3H63.2625V1.4H65.6625V4.3H66.4625V1.4H68.8625V10.3H62.1425C61.0425 10.3 60.0625 9.2 60.0625 7.86V1.4H62.4625V4.3ZM62.4625 6.1V7.66C62.4625 8.22 62.7825 8.5 63.2025 8.5H63.2625V6.1H62.4625ZM65.6625 8.5H66.4625V6.1H65.6625V8.5ZM72.3625 6.1V10.9H69.8625V0.799999H72.3625V4.3H73.5825V0.799999H76.0625V12.1H73.5825V6.1H72.3625ZM71.4825 11.7V12.36C71.4825 14.94 73.4625 16.9 76.0825 17.34V19.12C73.2625 19 70.7025 17.44 70.0625 16.1C69.4025 17.4 66.9025 19 64.0825 19.12V17.34C66.5825 17 68.6825 14.98 68.6825 12.32V11.7H71.4825ZM89.1903 14.5C89.8503 13.02 89.9903 11.2 89.9903 9.26V3.6H80.4903V1.8H92.6903V9.24C92.6903 11.42 92.3903 13.2 91.7903 14.5H94.6703V16.3H78.4703V14.5H84.0103V7.6H86.7303V14.5H89.1903ZM104.474 4.3H105.274V1.4H107.674V4.3H108.474V1.4H110.874V10.3H104.154C103.054 10.3 102.074 9.2 102.074 7.86V1.4H104.474V4.3ZM104.474 6.1V7.66C104.474 8.22 104.794 8.5 105.214 8.5H105.274V6.1H104.474ZM107.674 8.5H108.474V6.1H107.674V8.5ZM114.374 6.1V10.9H111.874V0.799999H114.374V4.3H115.594V0.799999H118.074V12.1H115.594V6.1H114.374ZM113.494 11.7V12.36C113.494 14.94 115.474 16.9 118.094 17.34V19.12C115.274 19 112.714 17.44 112.074 16.1C111.414 17.4 108.914 19 106.094 19.12V17.34C108.594 17 110.694 14.98 110.694 12.32V11.7H113.494ZM126.482 3.6H120.782V1.8H129.282V3.64C129.282 9.12 125.582 13.54 120.582 13.96V12.16C124.542 11.08 126.482 7.18 126.482 3.94V3.6ZM134.882 0.799999V18.9H132.182V0.799999H134.882ZM152.71 8.6H142.61C141.41 8.6 140.51 7.46 140.51 6.1V1.4H143.21V6.06C143.21 6.52 143.51 6.8 144.11 6.8H152.71V8.6ZM138.49 10.5H154.69V12.3H143.19V16.3C143.19 16.78 143.51 17.1 143.99 17.1H152.69V18.9H142.41C141.31 18.9 140.49 17.78 140.49 16.52V12.3H138.49V10.5ZM166.954 1.32C169.574 1.32 171.794 3.76 171.794 7.6C171.794 11.4 169.654 13.9 166.954 13.9C164.134 13.9 162.094 11.34 162.094 7.6C162.094 3.82 164.234 1.32 166.954 1.32ZM166.954 3.12C165.834 3.12 164.794 4.64 164.794 7.6C164.794 10.42 165.834 12.1 166.934 12.1C168.094 12.1 169.094 10.5 169.094 7.6C169.094 4.62 168.114 3.12 166.954 3.12ZM176.894 0.799999V18.9H174.194V0.799999H176.894ZM188.622 0.299999C191.562 0.299999 193.622 2.66 193.622 5.1C193.622 6.32 193.162 7.44 192.402 8.3H196.702V10.1H193.162V11.6H194.722V14.52C194.722 15.42 194.102 16.22 193.402 16.22H185.222V16.62C185.222 17.02 185.522 17.3 186.042 17.3H194.922V19.1H184.602C183.502 19.1 182.522 17.96 182.522 16.66V14.42H192.002V13.4H182.522V11.6H184.042V10.1H180.502V8.3H184.842C184.062 7.44 183.622 6.3 183.622 5.1C183.622 2.74 185.622 0.299999 188.622 0.299999ZM188.622 2.1C187.282 2.1 186.302 3.54 186.322 5.1C186.302 6.66 187.302 8.1 188.622 8.1C189.902 8.1 190.902 6.7 190.922 5.1C190.902 3.58 189.862 2.1 188.622 2.1ZM190.442 10.1H186.762V11.6H190.442V10.1ZM210.505 3H204.805V1.2H213.305V2.7H216.405V0.799999H219.105V14.52C219.105 17.42 216.545 19.3 214.065 19.3C211.365 19.3 208.985 17.42 209.005 14.52C208.985 11.82 211.405 9.7 214.065 9.7C214.885 9.7 215.685 9.9 216.405 10.26V8.1H212.525V6.3H216.405V4.5H213.045C212.145 8.08 208.825 10.12 204.605 10.1V8.32C208.165 8.08 210.505 5.6 210.505 3.16V3ZM214.065 11.5C212.965 11.5 211.705 12.58 211.705 14.52C211.705 16.3 212.885 17.5 214.045 17.5C215.165 17.5 216.405 16.34 216.405 14.52C216.385 12.54 215.205 11.5 214.065 11.5ZM230.193 3H227.613C227.673 5.52 228.693 7.44 230.513 8.08V9.96C228.393 9.72 226.453 8 226.173 7.08C225.893 8 224.033 9.68 221.913 9.96V8.08C223.693 7.46 224.753 5.52 224.813 3H222.213V1.2H230.193V3ZM234.013 5.8V10.02C234.473 10.14 234.893 10.3 235.313 10.5V5.8H234.013ZM232.873 11.7C231.773 11.7 230.513 12.68 230.513 14.62C230.513 16.4 231.693 17.5 232.853 17.5C233.973 17.5 235.213 16.44 235.213 14.62C235.193 12.64 234.013 11.7 232.873 11.7ZM237.913 14.64C237.893 17.52 235.353 19.3 232.873 19.3C230.173 19.3 227.793 17.52 227.813 14.62C227.793 12.42 229.393 10.72 231.413 10.12V0.799999H234.013V4H235.313V0.799999H237.913V14.64ZM243.901 13.84H242.101L241.541 1.18H244.501L243.901 13.84ZM241.501 17.42C241.501 16.52 242.181 15.82 243.021 15.82C243.861 15.82 244.541 16.52 244.541 17.42C244.541 18.32 243.861 19.02 243.021 19.02C242.181 19.02 241.501 18.32 241.501 17.42Z" fill="#008E71"/>
</svg>
